<svg xmlns="http://www.w3.org/2000/svg">
<!-- 액티브바 -->
<symbol id="active-bar" viewBox="0 0 38 14"><path fill="#282725" d="M7 14h24c.642 0 1.26-.082 1.855-.246a7.347 7.347 0 0 0 1.68-.707 7.13 7.13 0 0 0 1.415-1.097 6.835 6.835 0 0 0 1.087-1.414c.307-.52.543-1.076.707-1.67C37.914 8.263 38 7.641 38 7a6.68 6.68 0 0 0-.256-1.855 6.786 6.786 0 0 0-.707-1.68A6.833 6.833 0 0 0 34.536.962a6.787 6.787 0 0 0-1.681-.707A6.683 6.683 0 0 0 31 0H7c-.642 0-1.264.085-1.865.256a6.81 6.81 0 0 0-1.67.707c-.52.301-.992.663-1.415 1.087-.424.423-.79.895-1.097 1.414-.3.52-.536 1.08-.707 1.68A6.944 6.944 0 0 0 0 7c0 .642.082 1.264.246 1.865.17.595.407 1.152.707 1.67a7.128 7.128 0 0 0 2.511 2.512c.52.3 1.076.536 1.67.707A7.057 7.057 0 0 0 7 14z"/></symbol>
<!-- 닫기 -->
<symbol id="close" viewBox="0 0 21 21"><path fill="#fff" fill-rule="evenodd" d="M21 1.082L19.918 0 10.5 9.417 1.082 0 0 1.083 9.417 10.5 0 19.917l1.082 1.081 9.418-9.416 9.418 9.417L21 19.916 11.582 10.5 21 1.082z" clip-rule="evenodd"/></symbol>
<!-- 브로슈어 화살표 -->
<symbol id="brochure-arrow" viewBox="0 0 25 25"><path fill="#FFFCF9" fill-opacity=".5" fill-rule="evenodd" d="M9.585.287h13.5a1.5 1.5 0 0 1 1.5 1.5v13.5a1.5 1.5 0 1 1-3 0V5.408L2.931 24.061A1.5 1.5 0 0 1 .81 21.939L19.463 3.287H9.585a1.5 1.5 0 0 1 0-3z" clip-rule="evenodd"/></symbol>
<!-- 이듬 캠퍼스옆 꺽쇠 -->
<symbol id="ethum-campus-up" viewBox="0 0 16 10"><path fill="#FFFCF9" d="M8 8.133L15.101.8l.699.721L8 9.575.2 1.521.898.8 8 8.133z"/></symbol>
<!-- 증가 버튼 -->
<symbol id="increase" viewBox="0 0 18 18"><path fill="#6B56E7" fill-rule="evenodd" d="M2 .6A1.4 1.4 0 0 0 .6 2v14A1.4 1.4 0 0 0 2 17.4h14a1.4 1.4 0 0 0 1.4-1.4V2A1.4 1.4 0 0 0 16 .6H2zm7 3.36l4.368 4.536h-3.03v5.544H7.526V8.496H4.632L9 3.96z" clip-rule="evenodd"/></symbol>
<!-- 커피 스토어 -->
<symbol id="coffee-store" viewBox="0 0 152 127"><g clip-path="url(#a)"><path fill="#D68231" d="M108.325 24.481H95.781v-4.849h12.544a3.9 3.9 0 0 0 3.902-3.889 3.9 3.9 0 0 0-3.902-3.889h-3.788v-4.85h3.788c4.834 0 8.766 3.92 8.766 8.739 0 4.818-3.932 8.738-8.766 8.738z"/><path fill="#FFB819" d="M102.106.597c4.661 0 5.325 3.672 5.017 5.44C104.538 20.837 91.587 32.09 76 32.09c-15.587 0-28.538-11.253-31.123-26.053-.309-1.767.356-5.44 5.017-5.44h52.212zm40.564 36.414H9.328v87.159H142.67V37.011z"/><path d="M23.38 75.453H9.328v6.74H23.38v-6.74zm22.192-19.665H31.521v6.74h14.051v-6.74zm43.303-2.128H74.824v6.742h14.051V53.66zM67.21 41.22H53.157v6.742h14.051V41.22zm75.461 22.057H128.62v6.741h14.051v-6.74zm-2.318 41.422h-14.051v6.741h14.051v-6.741zm-29.539 6.307H96.762v6.741h14.052v-6.741zM85.863 91.965H71.81v6.741h14.052v-6.74zM29.184 110.36H15.132v6.741h14.052v-6.741z" opacity=".1"/><path fill="#00B3E3" d="M6.277 40.402v4.306c0 5.484 4.46 9.929 9.96 9.929 5.501 0 9.96-4.445 9.96-9.929v-4.306H6.278z"/><path fill="#fff" d="M26.198 40.402v4.306c0 5.484 4.46 9.929 9.96 9.929 5.501 0 9.96-4.445 9.96-9.929v-4.306h-19.92z"/><path fill="#00B3E3" d="M46.119 40.402v4.306c0 5.484 4.46 9.929 9.96 9.929 5.5 0 9.96-4.445 9.96-9.929v-4.306h-19.92z"/><path fill="#fff" d="M66.04 40.402v4.306c0 5.484 4.459 9.929 9.96 9.929 5.5 0 9.96-4.445 9.96-9.929v-4.306H66.04z"/><path fill="#00B3E3" d="M85.96 40.402v4.306c0 5.484 4.46 9.929 9.96 9.929 5.502 0 9.961-4.445 9.961-9.929v-4.306h-19.92z"/><path fill="#fff" d="M105.881 40.402v4.306c0 5.484 4.459 9.929 9.96 9.929 5.501 0 9.96-4.445 9.96-9.929v-4.306h-19.92z"/><path fill="#00B3E3" d="M125.802 40.402v4.306c0 5.484 4.459 9.929 9.96 9.929 5.501 0 9.96-4.445 9.96-9.929v-4.306h-19.92z"/><path fill="#333E48" d="M148.274 41.358a3.247 3.247 0 0 1-3.242 3.232H6.968a3.247 3.247 0 0 1-3.242-3.233v-7.601a3.247 3.247 0 0 1 3.242-3.233h138.063a3.247 3.247 0 0 1 3.243 3.233v7.602z"/><path fill="#fff" d="M126.25 66.647H82.402v57.523h43.848V66.647z"/><path fill="#00B3E3" d="M118.519 74.91H90.133v20.317h28.386V74.909z"/><path fill="#fff" d="M111.059 81.352H97.595V86.2h13.464v-4.85z"/><path fill="#333E48" d="M92.56 107.141a2.42 2.42 0 0 0 2.423-2.416 2.42 2.42 0 0 0-2.424-2.416 2.42 2.42 0 0 0-2.424 2.416 2.42 2.42 0 0 0 2.424 2.416zM152 125.098c0 .718-.589 1.306-1.31 1.306H1.31c-.72 0-1.31-.588-1.31-1.306v-4.674c0-.718.59-1.306 1.31-1.306h149.38c.721 0 1.31.588 1.31 1.306v4.674z"/><path fill="#A4A9AD" d="M132.402 119.117H76.251v7.286h56.151v-7.286z"/><path fill="#333E48" d="M71.743 66.647H19.986v35.66h51.757v-35.66z"/><path fill="#00B3E3" d="M52.644 75.32H39.086l-2.975 10.292h19.508l-2.975-10.291z"/><path fill="#fff" d="M48.296 66.647h-4.864v8.674h4.864v-8.674z"/><path fill="#00B3E3" d="M27.194 102.308v-7.08a2.428 2.428 0 0 1 2.432-2.425 2.429 2.429 0 0 1 2.433 2.424v7.081h-4.865zm32.478-.001v-7.08a2.429 2.429 0 0 1 2.433-2.425 2.428 2.428 0 0 1 2.432 2.425v7.08h-4.864z"/></g><defs><clipPath id="a"><path fill="#fff" d="M0 0h152v127H0z"/></clipPath></defs></symbol>
<!-- 감소 버튼 -->
<symbol id="decrease" viewBox="0 0 18 18"><path fill="#EC708E" fill-rule="evenodd" d="M2 17.4A1.4 1.4 0 0 1 .6 16V2A1.4 1.4 0 0 1 2 .6h14A1.4 1.4 0 0 1 17.4 2v14a1.4 1.4 0 0 1-1.4 1.4H2zm7-3.36l4.368-4.536h-3.03V3.96H7.526v5.544H4.632L9 14.04z" clip-rule="evenodd"/></symbol>
<!-- 원 안에 위로 화살표 -->
<symbol id="go-up" viewBox="0 0 88 89"><style>.st0{fill:#e27762}.st1{fill:#fffcf9}</style><circle cx="44" cy="30.3" r="30" class="st0"/><path d="M43 41.3c0 .6.4 1 1 1s1-.4 1-1h-2zm1.7-22.7c-.4-.4-1-.4-1.4 0L36.9 25c-.4.4-.4 1 0 1.4.4.4 1 .4 1.4 0l5.7-5.7 5.7 5.7c.4.4 1 .4 1.4 0 .4-.4.4-1 0-1.4l-6.4-6.4zm.3 22.7v-22h-2v22h2z" class="st1"/></symbol>
<!-- 뉴 버튼 -->
<symbol id="new" viewBox="0 0 18 18"><path fill="#3FC2C2" fill-rule="evenodd" d="M2 17.4A1.4 1.4 0 0 1 .6 16V2A1.4 1.4 0 0 1 2 .6h14A1.4 1.4 0 0 1 17.4 2v14a1.4 1.4 0 0 1-1.4 1.4H2zm5.198-9.684v6.415H4.8V3.4h2.052l4.316 6.352h.087V3.4h2.405v10.73h-2.044L7.292 7.717h-.094z" clip-rule="evenodd"/></symbol>
<!-- 수평 로고-네임-밝은것 -->
<symbol id="horizon-typo-light" viewBox="0 0 235 90"><path fill="#FFFCF9" fill-rule="evenodd" d="M92.692 82.003c-5.28 8.229-31.778 7.48-42.743 7.48-10.964 0-35.128 0-42.742-7.48C.507 75.341 0 52.011 0 44.741c0-7.271.508-30.6 7.207-37.167C14.82 0 38.985 0 49.949 0c10.965 0 35.128 0 42.743 7.574C99.392 14.14 100 37.468 100 44.741c0 7.27-.608 30.6-7.308 37.262zm-5.28-69.176c-4.57-4.545-23.047-5.352-37.463-5.352s-32.894.807-37.36 5.352C9.035 16.361 7.41 32.722 7.41 44.741c0 12.018 1.625 28.38 5.178 31.914 4.466 4.543 22.944 5.452 37.36 5.452s32.893-.91 37.463-5.452c3.553-3.535 5.075-19.896 5.075-31.914.002-12.019-1.521-28.38-5.075-31.914zm-7.716 41.608H20.203l-3.656-28.681 18.174 12.522 15.228-15.248 15.33 15.25 18.174-12.523-3.757 28.68zm-1.42 11.211h-56.55l-.914-6.261h58.276l-.813 6.261zM64.67 45.751L49.95 31.208 35.23 45.751l-11.168-7.877 1.32 10.402h49.137l1.42-10.402-11.267 7.877z" clip-rule="evenodd"/><path fill="#FFFCF9" d="M117.092 48.033c0 6.645 3.375 10.494 9.211 10.494 2.795 0 5.062-.879 6.679-2.496 1.196-1.213 1.969-2.76 1.969-3.867 0-.686-.404-1.125-1.125-1.125-.562 0-.879.281-1.248 1.055-1.142 2.76-3.322 4.183-6.187 4.183-4.36 0-6.838-2.97-6.838-8.226v-4.06c0-5.239 2.461-8.245 6.785-8.245 2.812 0 4.922 1.477 6.135 4.254.386.826.756 1.09 1.336 1.09.65 0 1.089-.422 1.089-1.16 0-1.037-.755-2.62-1.951-3.832-1.635-1.705-3.867-2.584-6.679-2.584-5.801 0-9.176 3.884-9.176 10.494v4.025zm21.955 10.195c.668 0 1.072-.316 1.336-1.142l2.267-6.645h9.299l2.268 6.645c.281.826.668 1.142 1.336 1.142.703 0 1.177-.421 1.177-1.072 0-.281-.07-.562-.175-.861l-7.541-21.059c-.352-.931-.844-1.388-1.705-1.388-.879 0-1.354.457-1.705 1.388l-7.559 21.059c-.106.299-.158.58-.158.861 0 .668.457 1.072 1.16 1.072zm4.307-9.808l3.902-11.373h.105l3.885 11.373h-7.892zm18.65 9.756c.756 0 1.248-.528 1.248-1.354v-9.527h9.299c.808 0 1.318-.422 1.318-1.108 0-.703-.51-1.142-1.318-1.142h-9.299v-8.772h10.23c.809 0 1.319-.421 1.319-1.107 0-.703-.51-1.143-1.319-1.143h-10.283c-1.722 0-2.408.65-2.408 2.233v20.566c0 .826.457 1.354 1.213 1.354zm16.857-2.391c0 1.582.686 2.215 2.409 2.215h10.494c.808 0 1.318-.422 1.318-1.107 0-.703-.51-1.143-1.318-1.143h-10.442v-8.895h9.826c.809 0 1.319-.421 1.319-1.107 0-.685-.51-1.125-1.319-1.125h-9.826v-8.35h10.459c.809 0 1.319-.421 1.319-1.107 0-.703-.51-1.143-1.319-1.143H181.27c-1.723 0-2.409.65-2.409 2.233v19.53zm28.301-.967c.703 2.514 2.162 3.34 4.201 3.34 2.022 0 3.481-1.195 4.043-3.34l2.813-10.617h.246l2.76 10.406c.65 2.496 2.074 3.551 4.271 3.551 2.074 0 3.375-1.09 4.008-3.34l4.394-15.943c.141-.475.247-1.318.247-1.916 0-1.846-1.354-3.129-3.305-3.129-1.863 0-3.006 1.178-3.498 3.71l-2.373 11.495h-.334l-2.795-11.637c-.598-2.496-1.652-3.568-3.516-3.568-1.863 0-2.847 1.02-3.48 3.568l-2.778 11.637h-.316l-2.549-11.496c-.562-2.584-1.617-3.709-3.463-3.709-1.986 0-3.34 1.3-3.34 3.2 0 .58.123 1.458.37 2.32l4.394 15.468z"/></symbol>
<!-- 멀티 캠퍼스 위로 꺽쇠 -->
<symbol id="multi-campus-up" viewBox="0 0 16 9"><path fill="#282725" d="M14.525 8.619l-6.546-6.54-6.546 6.54L.8 7.986 7.979.8l7.179 7.186-.633.633z"/></symbol>
<!-- 재생 버튼 -->
<symbol id="play" viewBox="0 0 15 21"><path fill="#FFFCF9" d="M15 10.5L0 0v21l15-10.5z"/></symbol>
<!-- 플러스 버튼 -->
<symbol id="plus-button" viewBox="0 0 16 16"><path fill="#E27762" d="M12.8 7.7v.6H8.3v4.5h-.6V8.3H3.2v-.6h4.5V3.2h.6v4.5h4.5zM0 0v-2h-2v2h2zm16 0h2v-2h-2v2zm0 16v2h2v-2h-2zM0 16h-2v2h2v-2zM0 2h16v-4H0v4zm14-2v16h4V0h-4zm2 14H0v4h16v-4zM2 16V0h-4v16h4z"/></symbol>
<!-- 동일 버튼 -->
<symbol id="same" viewBox="0 0 18 18"><path fill="#777" fill-opacity=".9" fill-rule="evenodd" d="M2 17.4A1.4 1.4 0 0 1 .6 16V2A1.4 1.4 0 0 1 2 .6h14A1.4 1.4 0 0 1 17.4 2v14a1.4 1.4 0 0 1-1.4 1.4H2zm13.3-9.8H2.7v3.5h12.6V7.6z" clip-rule="evenodd"/></symbol>
<!-- git-htm-클래스-왼쪽 -->
<symbol id="git-html-left" viewBox="0 0 14 24"><path fill="#282725" d="M13.031 22.875l-1.054 1.055L0 11.965 11.977 0l1.054 1.055-10.898 10.91 10.898 10.91z"/></symbol>
<!-- 중지 버튼 -->
<symbol id="pause" viewBox="0 0 13 20"><path fill="#282725" d="M0 20V0h3.5v20H0zM9.5 0H13v20H9.5V0z"/></symbol>
<!-- 반응형웹-클래스-오른쪽 -->
<symbol id="responsive-web-right" viewBox="0 0 14 24"><path fill="#282725" d="M0 22.875l10.898-10.91L0 1.055 1.055 0 13.03 11.965 1.055 23.93 0 22.875z"/></symbol>
<!-- 채워지지-않은-별 -->
<symbol id="star-blank" viewBox="0 0 22 21"><path fill="#FFFCF9" fill-opacity=".4" d="M11.01 0l2.528 7.782h8.183l-6.62 4.81 2.528 7.781-6.62-4.81-6.619 4.81 2.529-7.782-6.62-4.809H8.48L11.01 0z"/></symbol>
<!-- 로그인-밝은것 -->
<symbol id="sign-in-light" viewBox="0 0 51 17"><path fill="#FFFCF9" d="M5.184 12.708c-.875 0-1.68-.155-2.416-.464a5.984 5.984 0 0 1-1.904-1.28l.928-1.008c.448.448.965.805 1.552 1.072a4.666 4.666 0 0 0 1.856.384c.81 0 1.445-.176 1.904-.528a1.67 1.67 0 0 0 .688-1.392c0-.299-.053-.55-.16-.752a1.655 1.655 0 0 0-.432-.544 2.64 2.64 0 0 0-.656-.416c-.245-.117-.512-.24-.8-.368l-1.776-.736a9.286 9.286 0 0 1-.88-.416 4.165 4.165 0 0 1-.816-.608 3.448 3.448 0 0 1-.592-.848c-.15-.33-.224-.71-.224-1.136 0-.448.096-.864.288-1.248.203-.384.475-.715.816-.992a3.67 3.67 0 0 1 1.216-.64c.48-.16 1.003-.24 1.568-.24A5.08 5.08 0 0 1 8.96 2.004l-.816.944a4.296 4.296 0 0 0-1.248-.8 3.802 3.802 0 0 0-1.552-.304c-.704 0-1.264.155-1.68.464-.416.31-.624.73-.624 1.264 0 .288.059.533.176.736.128.203.288.384.48.544.192.15.405.283.64.4.245.107.49.208.736.304l1.76.72c.352.15.683.32.992.512.31.192.576.41.8.656.235.245.416.528.544.848.139.32.208.683.208 1.088 0 .47-.101.907-.304 1.312a3.26 3.26 0 0 1-.832 1.056 4.034 4.034 0 0 1-1.328.704 5.447 5.447 0 0 1-1.728.256zm6.491-8.896h1.456V12.5h-1.456V3.812zm.736-1.792c-.288 0-.528-.085-.72-.256a.906.906 0 0 1-.288-.688c0-.299.096-.528.288-.688.192-.17.432-.256.72-.256s.528.085.72.256c.192.16.288.39.288.688a.906.906 0 0 1-.288.688c-.192.17-.432.256-.72.256zM19.01 16.5a6.35 6.35 0 0 1-1.472-.16 3.513 3.513 0 0 1-1.136-.448 2.206 2.206 0 0 1-.736-.736 1.908 1.908 0 0 1-.256-.992c0-.373.112-.73.336-1.072.235-.33.555-.63.96-.896v-.064a1.7 1.7 0 0 1-.576-.56c-.149-.235-.224-.523-.224-.864 0-.363.107-.683.32-.96a3.2 3.2 0 0 1 .656-.656v-.064a3.52 3.52 0 0 1-.784-.944 2.727 2.727 0 0 1-.352-1.392c0-.48.086-.907.256-1.28a3.03 3.03 0 0 1 .72-.976 2.944 2.944 0 0 1 1.04-.624c.395-.15.811-.224 1.248-.224.246 0 .47.027.672.08.214.043.395.09.544.144h3.024v1.12h-1.776a2.2 2.2 0 0 1 .512.768c.128.31.192.65.192 1.024 0 .47-.085.89-.256 1.264-.16.363-.384.677-.672.944-.288.267-.624.47-1.008.608a3.6 3.6 0 0 1-1.232.208c-.458 0-.89-.101-1.296-.304-.16.139-.293.288-.4.448-.106.15-.16.347-.16.592 0 .277.107.507.32.688.214.17.614.256 1.2.256h1.696c1.014 0 1.771.165 2.272.496.502.33.752.853.752 1.568 0 .405-.101.79-.304 1.152a2.987 2.987 0 0 1-.88.96 4.551 4.551 0 0 1-1.392.656c-.533.16-1.136.24-1.808.24zm0-7.744c.246 0 .48-.048.704-.144.224-.096.416-.235.576-.416.171-.181.304-.395.4-.64.107-.256.16-.544.16-.864 0-.64-.181-1.136-.544-1.488a1.736 1.736 0 0 0-1.296-.544c-.512 0-.949.181-1.312.544-.362.352-.544.848-.544 1.488 0 .32.048.608.144.864.107.245.24.459.4.64a1.755 1.755 0 0 0 1.312.56zm.208 6.752c.416 0 .795-.053 1.136-.16.342-.096.63-.23.864-.4.246-.16.432-.352.56-.576a1.19 1.19 0 0 0 .208-.656c0-.405-.154-.688-.464-.848-.298-.15-.736-.224-1.312-.224h-1.504c-.16 0-.341-.01-.544-.032a3.66 3.66 0 0 1-.576-.112c-.309.224-.538.459-.688.704a1.6 1.6 0 0 0-.208.768c0 .47.219.843.656 1.12.448.277 1.072.416 1.872.416zm5.88-11.696h1.2l.128 1.248h.048a7.906 7.906 0 0 1 1.312-1.04 2.997 2.997 0 0 1 1.6-.432c.917 0 1.59.288 2.016.864.427.576.64 1.424.64 2.544V12.5h-1.456V7.188c0-.821-.133-1.413-.4-1.776-.256-.363-.672-.544-1.248-.544-.448 0-.848.112-1.2.336-.352.224-.747.555-1.184.992V12.5h-1.456V3.812zM38.872.772h1.552V12.5h-1.552V.772zm4.834 3.04h1.2l.128 1.248h.048a7.906 7.906 0 0 1 1.312-1.04 2.997 2.997 0 0 1 1.6-.432c.918 0 1.59.288 2.016.864.427.576.64 1.424.64 2.544V12.5h-1.456V7.188c0-.821-.133-1.413-.4-1.776-.256-.363-.672-.544-1.248-.544-.448 0-.848.112-1.2.336-.352.224-.746.555-1.184.992V12.5h-1.456V3.812z"/></symbol>
<!-- 회원가입-밝은것 -->
<symbol id="sign-up-light" viewBox="0 0 59 17"><path fill="#FFFCF9" d="M5.184 12.708c-.875 0-1.68-.155-2.416-.464a5.984 5.984 0 0 1-1.904-1.28l.928-1.008c.448.448.965.805 1.552 1.072a4.666 4.666 0 0 0 1.856.384c.81 0 1.445-.176 1.904-.528a1.67 1.67 0 0 0 .688-1.392c0-.299-.053-.55-.16-.752a1.655 1.655 0 0 0-.432-.544 2.64 2.64 0 0 0-.656-.416c-.245-.117-.512-.24-.8-.368l-1.776-.736a9.286 9.286 0 0 1-.88-.416 4.165 4.165 0 0 1-.816-.608 3.448 3.448 0 0 1-.592-.848c-.15-.33-.224-.71-.224-1.136 0-.448.096-.864.288-1.248.203-.384.475-.715.816-.992a3.67 3.67 0 0 1 1.216-.64c.48-.16 1.003-.24 1.568-.24A5.08 5.08 0 0 1 8.96 2.004l-.816.944a4.296 4.296 0 0 0-1.248-.8 3.802 3.802 0 0 0-1.552-.304c-.704 0-1.264.155-1.68.464-.416.31-.624.73-.624 1.264 0 .288.059.533.176.736.128.203.288.384.48.544.192.15.405.283.64.4.245.107.49.208.736.304l1.76.72c.352.15.683.32.992.512.31.192.576.41.8.656.235.245.416.528.544.848.139.32.208.683.208 1.088 0 .47-.101.907-.304 1.312a3.26 3.26 0 0 1-.832 1.056 4.034 4.034 0 0 1-1.328.704 5.447 5.447 0 0 1-1.728.256zm6.491-8.896h1.456V12.5h-1.456V3.812zm.736-1.792c-.288 0-.528-.085-.72-.256a.906.906 0 0 1-.288-.688c0-.299.096-.528.288-.688.192-.17.432-.256.72-.256s.528.085.72.256c.192.16.288.39.288.688a.906.906 0 0 1-.288.688c-.192.17-.432.256-.72.256zM19.01 16.5a6.35 6.35 0 0 1-1.472-.16 3.513 3.513 0 0 1-1.136-.448 2.206 2.206 0 0 1-.736-.736 1.908 1.908 0 0 1-.256-.992c0-.373.112-.73.336-1.072.235-.33.555-.63.96-.896v-.064a1.7 1.7 0 0 1-.576-.56c-.149-.235-.224-.523-.224-.864 0-.363.107-.683.32-.96a3.2 3.2 0 0 1 .656-.656v-.064a3.52 3.52 0 0 1-.784-.944 2.727 2.727 0 0 1-.352-1.392c0-.48.086-.907.256-1.28a3.03 3.03 0 0 1 .72-.976 2.944 2.944 0 0 1 1.04-.624c.395-.15.811-.224 1.248-.224.246 0 .47.027.672.08.214.043.395.09.544.144h3.024v1.12h-1.776a2.2 2.2 0 0 1 .512.768c.128.31.192.65.192 1.024 0 .47-.085.89-.256 1.264-.16.363-.384.677-.672.944-.288.267-.624.47-1.008.608a3.6 3.6 0 0 1-1.232.208c-.458 0-.89-.101-1.296-.304-.16.139-.293.288-.4.448-.106.15-.16.347-.16.592 0 .277.107.507.32.688.214.17.614.256 1.2.256h1.696c1.014 0 1.771.165 2.272.496.502.33.752.853.752 1.568 0 .405-.101.79-.304 1.152a2.987 2.987 0 0 1-.88.96 4.551 4.551 0 0 1-1.392.656c-.533.16-1.136.24-1.808.24zm0-7.744c.246 0 .48-.048.704-.144.224-.096.416-.235.576-.416.171-.181.304-.395.4-.64.107-.256.16-.544.16-.864 0-.64-.181-1.136-.544-1.488a1.736 1.736 0 0 0-1.296-.544c-.512 0-.949.181-1.312.544-.362.352-.544.848-.544 1.488 0 .32.048.608.144.864.107.245.24.459.4.64a1.755 1.755 0 0 0 1.312.56zm.208 6.752c.416 0 .795-.053 1.136-.16.342-.096.63-.23.864-.4.246-.16.432-.352.56-.576a1.19 1.19 0 0 0 .208-.656c0-.405-.154-.688-.464-.848-.298-.15-.736-.224-1.312-.224h-1.504c-.16 0-.341-.01-.544-.032a3.66 3.66 0 0 1-.576-.112c-.309.224-.538.459-.688.704a1.6 1.6 0 0 0-.208.768c0 .47.219.843.656 1.12.448.277 1.072.416 1.872.416zm5.88-11.696h1.2l.128 1.248h.048a7.906 7.906 0 0 1 1.312-1.04 2.997 2.997 0 0 1 1.6-.432c.917 0 1.59.288 2.016.864.427.576.64 1.424.64 2.544V12.5h-1.456V7.188c0-.821-.133-1.413-.4-1.776-.256-.363-.672-.544-1.248-.544-.448 0-.848.112-1.2.336-.352.224-.747.555-1.184.992V12.5h-1.456V3.812zm17.967 8.896a5.69 5.69 0 0 1-1.744-.256 3.54 3.54 0 0 1-1.408-.848c-.394-.405-.704-.928-.928-1.568-.224-.64-.336-1.435-.336-2.384V.772H40.2V7.7c0 .704.075 1.296.224 1.776.15.47.352.848.608 1.136.256.288.555.496.896.624.352.117.731.176 1.136.176.416 0 .8-.059 1.152-.176.363-.128.672-.336.928-.624.267-.288.475-.667.624-1.136.16-.48.24-1.072.24-1.776V.772h1.488v6.88c0 .95-.112 1.744-.336 2.384-.224.64-.538 1.163-.944 1.568a3.4 3.4 0 0 1-1.408.848 5.694 5.694 0 0 1-1.744.256zm7.549-8.896h1.2l.128.992h.048a7.68 7.68 0 0 1 1.296-.848 3.14 3.14 0 0 1 1.472-.368c.554 0 1.045.107 1.472.32.437.213.8.512 1.088.896.298.384.522.848.672 1.392.149.544.224 1.152.224 1.824 0 .747-.107 1.413-.32 2a4.487 4.487 0 0 1-.832 1.472 3.555 3.555 0 0 1-1.2.912 3.414 3.414 0 0 1-1.424.304c-.395 0-.795-.085-1.2-.256a5.445 5.445 0 0 1-1.2-.752l.032 1.52v2.944h-1.456V3.812zm3.584 7.68c.362 0 .693-.08.992-.24.309-.16.576-.384.8-.672.224-.299.394-.661.512-1.088a5.07 5.07 0 0 0 .192-1.456c0-.48-.043-.917-.128-1.312a2.974 2.974 0 0 0-.4-1.008 1.804 1.804 0 0 0-.704-.656c-.288-.16-.64-.24-1.056-.24a2.42 2.42 0 0 0-1.136.304c-.374.203-.774.501-1.2.896v4.56c.394.341.773.581 1.136.72.373.128.704.192.992.192z"/></symbol>
<!-- 5점별 -->
<symbol id="star-larger" viewBox="0 0 29 27"><path fill="#FFFCF9" d="M14.4 0l3.233 9.95h10.462l-8.464 6.15 3.233 9.95L14.4 19.9l-8.464 6.15 3.233-9.95L.705 9.95h10.462L14.4 0z"/></symbol>
<!-- 검색버튼 -->
<symbol id="search-button-light" viewBox="0 0 40 40"><path fill="#FFFCF9" d="M22.75 8a8.15 8.15 0 0 1 5.824 2.426A8.106 8.106 0 0 1 31 16.25a8.15 8.15 0 0 1-1.125 4.16 8.392 8.392 0 0 1-2.965 2.965 8.15 8.15 0 0 1-4.16 1.125 8.135 8.135 0 0 1-2.813-.492 8.45 8.45 0 0 1-2.46-1.418l-9.2 9.187A.72.72 0 0 1 7.75 32a.72.72 0 0 1-.527-.223A.72.72 0 0 1 7 31.25a.72.72 0 0 1 .223-.527l9.187-9.2a8.445 8.445 0 0 1-1.418-2.46 8.135 8.135 0 0 1-.492-2.813 8.15 8.15 0 0 1 1.125-4.16c.36-.61.79-1.164 1.29-1.664a8.39 8.39 0 0 1 1.675-1.301A8.152 8.152 0 0 1 22.75 8zm0 15a6.6 6.6 0 0 0 2.625-.527 6.936 6.936 0 0 0 2.145-1.453 6.77 6.77 0 0 0 1.44-2.145c.36-.82.54-1.695.54-2.625 0-.93-.18-1.805-.54-2.625a6.77 6.77 0 0 0-1.44-2.145 6.77 6.77 0 0 0-2.145-1.44 6.469 6.469 0 0 0-2.625-.54c-.93 0-1.805.18-2.625.54a6.77 6.77 0 0 0-2.145 1.44 6.936 6.936 0 0 0-1.453 2.145A6.594 6.594 0 0 0 16 16.25a6.6 6.6 0 0 0 .527 2.625c.36.82.844 1.535 1.453 2.145a6.936 6.936 0 0 0 2.145 1.453A6.6 6.6 0 0 0 22.75 23z"/></symbol>
<!-- 채워진-별 -->
<symbol id="star-fill" viewBox="0 0 22 21"><path fill="#FFFCF9" d="M11.185 0l2.51 7.728h8.127l-6.574 4.777 2.51 7.728-6.573-4.776-6.574 4.776 2.51-7.728L.549 7.728h8.126L11.184 0z"/></symbol>
<!-- 별-메달 -->
<symbol id="star-medal" viewBox="0 0 300 300"><circle cx="150" cy="150" r="90" fill="#FFFCF9" filter="url(#a)"/><path fill="#A37356" d="M150 89l5.485 16.86h17.748l-14.359 10.42 5.485 16.86L150 122.72l-14.359 10.42 5.485-16.86-14.359-10.42h17.748L150 89z"/><path stroke="#A37356" stroke-linecap="round" stroke-width="2.57" d="M106.29 154.49h87.42"/><path fill="#A37356" d="M131.177 175.331h-6.891l15.317 35.599 10.306-22.407L160.05 211l15.664-35.669-6.873.012-8.705 20.398-10.258-21.76-10.17 21.76-8.531-20.41z"/><defs><filter id="a" width="210" height="210" x="45" y="45" color-interpolation-filters="sRGB" filterUnits="userSpaceOnUse"><feFlood flood-opacity="0" result="BackgroundImageFix"/><feColorMatrix in="SourceAlpha" values="0 0 0 0 0 0 0 0 0 0 0 0 0 0 0 0 0 0 127 0"/><feOffset/><feGaussianBlur stdDeviation="7.5"/><feColorMatrix values="0 0 0 0 0.404167 0 0 0 0 0.188793 0 0 0 0 0.0976736 0 0 0 0.3 0"/><feBlend in2="BackgroundImageFix" result="effect1_dropShadow"/><feBlend in="SourceGraphic" in2="effect1_dropShadow" result="shape"/></filter></defs></symbol>
<!-- 별-심볼-브라운 -->
<symbol id="star-symbol-brown" viewBox="0 0 70 95"><path fill="#A37356" d="M35 0l4.266 13.129H53.07l-11.168 8.114 4.266 13.128L35 26.257l-11.168 8.114 4.266-13.128-11.168-8.114h13.804L35 0z"/><path stroke="#A37356" stroke-linecap="round" stroke-width="2" d="M1 51h68"/><path fill="#A37356" d="M20.36 67.225H15l11.913 27.72 8.016-17.447L42.816 95 55 67.225l-5.346.01-6.77 15.883-7.979-16.944-7.91 16.944-6.635-15.893z"/></symbol>
<!-- 별-심볼-블랙 -->
<symbol id="star-symbol-black" viewBox="0 0 70 95"><path fill="#7D6F5D" fill-opacity=".3" d="M35 0l4.266 13.129H53.07l-11.168 8.114 4.266 13.128L35 26.257l-11.168 8.114 4.266-13.128-11.168-8.114h13.804L35 0z"/><path stroke="#7D6F5D" stroke-linecap="round" stroke-opacity=".3" stroke-width="2" d="M1 51h68"/><path fill="#7D6F5D" fill-opacity=".3" d="M20.36 67.225H15l11.913 27.72 8.016-17.447L42.816 95 55 67.225l-5.346.01-6.77 15.883-7.979-16.944-7.91 16.944-6.635-15.893z"/></symbol>
<!-- 토글-활성화되지않은-원 -->
<symbol id="unactive-circle" viewBox="0 0 14 14"><path fill="#282725" fill-opacity=".4" d="M7 0c.642 0 1.26.085 1.855.256.601.164 1.162.4 1.68.707a6.835 6.835 0 0 1 2.502 2.501c.307.52.543 1.08.707 1.68C13.914 5.74 14 6.359 14 7c0 .642-.085 1.264-.256 1.865a6.825 6.825 0 0 1-.707 1.67c-.301.52-.663.992-1.087 1.415a7.13 7.13 0 0 1-1.414 1.097c-.52.3-1.08.536-1.68.707A6.943 6.943 0 0 1 7 14a7.057 7.057 0 0 1-1.865-.246 7.398 7.398 0 0 1-1.67-.707 7.129 7.129 0 0 1-2.512-2.511 7.398 7.398 0 0 1-.707-1.67A7.057 7.057 0 0 1 0 7c0-.642.082-1.26.246-1.855.17-.601.407-1.162.707-1.68A7.1 7.1 0 0 1 2.05 2.05 6.834 6.834 0 0 1 3.464.963a6.825 6.825 0 0 1 1.67-.707A6.792 6.792 0 0 1 7 0z" opacity=".5"/></symbol>
<!-- 스피커-버튼 -->
<symbol id="speaker" viewBox="0 0 27 24"><path fill="#fff" d="M24.363 18.825L21.078 16.9a.47.47 0 0 0-.646.178l-.593 1.043a.487.487 0 0 0 .173.659l3.285 1.925a.468.468 0 0 0 .646-.178l.592-1.043a.49.49 0 0 0-.172-.659zM20.429 6.922a.479.479 0 0 0 .287.225.467.467 0 0 0 .359-.047l3.285-1.925a.487.487 0 0 0 .172-.66l-.59-1.039a.479.479 0 0 0-.286-.225.467.467 0 0 0-.36.047l-3.284 1.925a.49.49 0 0 0-.173.659l.59 1.04zm5.181 3.99H21.8a.482.482 0 0 0-.477.483v1.21c0 .265.215.483.477.483h3.811a.482.482 0 0 0 .477-.483v-1.21a.482.482 0 0 0-.477-.483zM16.435 0a.908.908 0 0 0-.518.16L5.36 7.164H.476A.482.482 0 0 0 0 7.647v8.706a.48.48 0 0 0 .476.483H5.36l10.557 7.004a.94.94 0 0 0 .518.16.962.962 0 0 0 .956-.97V.97a.962.962 0 0 0-.956-.97z"/></symbol>
<!-- 수직로고 -->
<symbol id="vertical-logo" viewBox="0 0 77 90"><g fill="#CFCCC7" opacity=".45"><path fill-rule="evenodd" d="M71.373 63.08c-4.066 6.33-24.469 5.752-32.912 5.752-8.442 0-27.049 0-32.912-5.753C.391 57.954 0 40.01 0 34.416s.39-23.539 5.55-28.59C11.411 0 30.018 0 38.46 0c8.444 0 27.05 0 32.913 5.827C76.532 10.877 77 28.822 77 34.417c0 5.592-.468 23.537-5.627 28.662zM67.307 9.866C63.788 6.37 49.56 5.75 38.46 5.75c-11.1 0-25.329.62-28.768 4.117-2.736 2.718-3.986 15.304-3.986 24.55 0 9.243 1.25 21.83 3.986 24.548 3.44 3.495 17.667 4.194 28.768 4.194 11.1 0 25.327-.7 28.846-4.194 2.736-2.719 3.908-15.305 3.908-24.549.001-9.245-1.172-21.83-3.908-24.549zm-5.941 32.006h-45.81L12.741 19.81l13.994 9.632 11.726-11.73 11.804 11.731 13.994-9.632-2.893 22.061zm-1.094 8.624H16.73l-.704-4.816h44.873l-.626 4.816zM49.797 35.193L38.461 24.006 27.127 35.193l-8.6-6.06 1.016 8.003h37.836l1.094-8.002-8.676 6.06z" clip-rule="evenodd"/><path d="M22.217 84.818c0 .38.053.717.159 1.01.115.282.264.522.446.717.192.185.408.326.648.424.24.098.49.147.75.147.335 0 .623-.028.863-.082.25-.054.47-.13.663-.228.106-.055.22-.12.346-.196a1.21 1.21 0 0 1 .403-.146c.26-.055.494-.033.706.065.21.098.389.282.532.554.183.337.226.674.13 1.01-.086.337-.254.62-.504.848-.403.37-.888.635-1.455.798A5.723 5.723 0 0 1 24.22 90a6.138 6.138 0 0 1-1.83-.277 4.48 4.48 0 0 1-1.598-.88 4.677 4.677 0 0 1-1.123-1.565c-.279-.64-.418-1.412-.418-2.314v-3.39c0-.901.14-1.667.418-2.297.288-.642.662-1.163 1.123-1.565a4.355 4.355 0 0 1 1.599-.896 6.138 6.138 0 0 1 1.83-.277c.643 0 1.204.076 1.684.228.49.152.874.342 1.153.57.297.24.504.538.619.897a1.33 1.33 0 0 1-.086 1.043c-.145.282-.337.483-.577.602a1.08 1.08 0 0 1-.734.098 1.847 1.847 0 0 1-.447-.146 5.558 5.558 0 0 0-.345-.196 2.313 2.313 0 0 0-.548-.163 4.256 4.256 0 0 0-.72-.049c-.26 0-.509.05-.749.147-.24.098-.456.244-.648.44a2.094 2.094 0 0 0-.447.717 2.835 2.835 0 0 0-.158.994v3.097zm9.779-6.927c.144-.456.389-.793.734-1.01a2.05 2.05 0 0 1 1.124-.342c.365 0 .715.114 1.051.342.346.228.586.565.72 1.01l3.76 11.832h-3.17l-.56-2.02h-3.703l-.547 2.02h-3.11l3.7-11.832zm.706 7.057h2.203l-1.094-4.058-1.11 4.058zm7.454 4.775V79.18c0-.468.033-.864.1-1.19.077-.326.202-.592.375-.799.173-.206.403-.353.691-.44.288-.097.648-.146 1.08-.146H47.2c.211 0 .389.043.533.13.144.087.264.201.36.342.096.142.163.3.202.473.048.174.072.342.072.505 0 .163-.024.332-.072.505a1.36 1.36 0 0 1-.202.457 1.03 1.03 0 0 1-.36.326 1.13 1.13 0 0 1-.533.114h-3.66c-.163 0-.273.032-.33.098-.059.054-.087.179-.087.374v2.054h3.701c.212 0 .39.043.533.13.144.087.264.201.36.343.096.14.164.298.202.472.048.174.072.342.072.505 0 .163-.024.332-.072.505a1.36 1.36 0 0 1-.202.457 1.03 1.03 0 0 1-.36.326 1.13 1.13 0 0 1-.533.114h-3.701v4.89h-2.967zm12.222-8.051h3.932c.21 0 .389.044.533.13.144.087.264.202.36.343.096.141.163.299.201.473a1.722 1.722 0 0 1 0 .977 1.36 1.36 0 0 1-.201.457c-.087.13-.207.239-.36.326a1.132 1.132 0 0 1-.533.114h-3.932v1.906c0 .196.028.326.086.392.058.054.168.081.331.081h3.788c.212 0 .39.044.533.13a.859.859 0 0 1 .36.326c.096.13.164.283.202.457a1.723 1.723 0 0 1 0 .994 1.348 1.348 0 0 1-.202.472 1.148 1.148 0 0 1-.36.343c-.144.087-.321.13-.533.13h-4.911c-.432 0-.792-.043-1.08-.13a1.512 1.512 0 0 1-.692-.457 1.906 1.906 0 0 1-.374-.798 5.996 5.996 0 0 1-.101-1.19v-7.97c0-.466.034-.863.1-1.189.078-.326.202-.592.375-.799.173-.206.404-.353.692-.44.288-.097.648-.146 1.08-.146h4.767c.212 0 .39.043.533.13.144.087.264.201.36.342.096.142.163.3.202.473.048.174.072.342.072.505 0 .163-.024.332-.072.505a1.364 1.364 0 0 1-.202.457 1.03 1.03 0 0 1-.36.326 1.13 1.13 0 0 1-.533.114h-3.644c-.163 0-.273.032-.331.098-.058.054-.086.179-.086.374v1.744z"/></g></symbol>
</svg>