<svg xmlns="http://www.w3.org/2000/svg">
<symbol id="search-button-light" viewBox="0 0 40 40"><path fill="#FFFCF9" d="M22.75 8a8.15 8.15 0 0 1 5.824 2.426A8.106 8.106 0 0 1 31 16.25a8.15 8.15 0 0 1-1.125 4.16 8.392 8.392 0 0 1-2.965 2.965 8.15 8.15 0 0 1-4.16 1.125 8.135 8.135 0 0 1-2.813-.492 8.45 8.45 0 0 1-2.46-1.418l-9.2 9.187A.72.72 0 0 1 7.75 32a.72.72 0 0 1-.527-.223A.72.72 0 0 1 7 31.25a.72.72 0 0 1 .223-.527l9.187-9.2a8.445 8.445 0 0 1-1.418-2.46 8.135 8.135 0 0 1-.492-2.813 8.15 8.15 0 0 1 1.125-4.16c.36-.61.79-1.164 1.29-1.664a8.39 8.39 0 0 1 1.675-1.301A8.152 8.152 0 0 1 22.75 8zm0 15a6.6 6.6 0 0 0 2.625-.527 6.936 6.936 0 0 0 2.145-1.453 6.77 6.77 0 0 0 1.44-2.145c.36-.82.54-1.695.54-2.625 0-.93-.18-1.805-.54-2.625a6.77 6.77 0 0 0-1.44-2.145 6.77 6.77 0 0 0-2.145-1.44 6.469 6.469 0 0 0-2.625-.54c-.93 0-1.805.18-2.625.54a6.77 6.77 0 0 0-2.145 1.44 6.936 6.936 0 0 0-1.453 2.145A6.594 6.594 0 0 0 16 16.25a6.6 6.6 0 0 0 .527 2.625c.36.82.844 1.535 1.453 2.145a6.936 6.936 0 0 0 2.145 1.453A6.6 6.6 0 0 0 22.75 23z"/></symbol>

<symbol id="go-up" viewBox="0 0 88 89"><style>.st0{fill:#e27762}.st1{fill:#fffcf9}</style><circle cx="44" cy="30.3" r="30" class="st0"/><path d="M43 41.3c0 .6.4 1 1 1s1-.4 1-1h-2zm1.7-22.7c-.4-.4-1-.4-1.4 0L36.9 25c-.4.4-.4 1 0 1.4.4.4 1 .4 1.4 0l5.7-5.7 5.7 5.7c.4.4 1 .4 1.4 0 .4-.4.4-1 0-1.4l-6.4-6.4zm.3 22.7v-22h-2v22h2z" class="st1"/></symbol>

<symbol id="horizon-typo-light" viewBox="0 0 235 90"><path fill="#FFFCF9" fill-rule="evenodd" d="M92.692 82.003c-5.28 8.229-31.778 7.48-42.743 7.48-10.964 0-35.128 0-42.742-7.48C.507 75.341 0 52.011 0 44.741c0-7.271.508-30.6 7.207-37.167C14.82 0 38.985 0 49.949 0c10.965 0 35.128 0 42.743 7.574C99.392 14.14 100 37.468 100 44.741c0 7.27-.608 30.6-7.308 37.262zm-5.28-69.176c-4.57-4.545-23.047-5.352-37.463-5.352s-32.894.807-37.36 5.352C9.035 16.361 7.41 32.722 7.41 44.741c0 12.018 1.625 28.38 5.178 31.914 4.466 4.543 22.944 5.452 37.36 5.452s32.893-.91 37.463-5.452c3.553-3.535 5.075-19.896 5.075-31.914.002-12.019-1.521-28.38-5.075-31.914zm-7.716 41.608H20.203l-3.656-28.681 18.174 12.522 15.228-15.248 15.33 15.25 18.174-12.523-3.757 28.68zm-1.42 11.211h-56.55l-.914-6.261h58.276l-.813 6.261zM64.67 45.751L49.95 31.208 35.23 45.751l-11.168-7.877 1.32 10.402h49.137l1.42-10.402-11.267 7.877z" clip-rule="evenodd"/><path fill="#FFFCF9" d="M117.092 48.033c0 6.645 3.375 10.494 9.211 10.494 2.795 0 5.062-.879 6.679-2.496 1.196-1.213 1.969-2.76 1.969-3.867 0-.686-.404-1.125-1.125-1.125-.562 0-.879.281-1.248 1.055-1.142 2.76-3.322 4.183-6.187 4.183-4.36 0-6.838-2.97-6.838-8.226v-4.06c0-5.239 2.461-8.245 6.785-8.245 2.812 0 4.922 1.477 6.135 4.254.386.826.756 1.09 1.336 1.09.65 0 1.089-.422 1.089-1.16 0-1.037-.755-2.62-1.951-3.832-1.635-1.705-3.867-2.584-6.679-2.584-5.801 0-9.176 3.884-9.176 10.494v4.025zm21.955 10.195c.668 0 1.072-.316 1.336-1.142l2.267-6.645h9.299l2.268 6.645c.281.826.668 1.142 1.336 1.142.703 0 1.177-.421 1.177-1.072 0-.281-.07-.562-.175-.861l-7.541-21.059c-.352-.931-.844-1.388-1.705-1.388-.879 0-1.354.457-1.705 1.388l-7.559 21.059c-.106.299-.158.58-.158.861 0 .668.457 1.072 1.16 1.072zm4.307-9.808l3.902-11.373h.105l3.885 11.373h-7.892zm18.65 9.756c.756 0 1.248-.528 1.248-1.354v-9.527h9.299c.808 0 1.318-.422 1.318-1.108 0-.703-.51-1.142-1.318-1.142h-9.299v-8.772h10.23c.809 0 1.319-.421 1.319-1.107 0-.703-.51-1.143-1.319-1.143h-10.283c-1.722 0-2.408.65-2.408 2.233v20.566c0 .826.457 1.354 1.213 1.354zm16.857-2.391c0 1.582.686 2.215 2.409 2.215h10.494c.808 0 1.318-.422 1.318-1.107 0-.703-.51-1.143-1.318-1.143h-10.442v-8.895h9.826c.809 0 1.319-.421 1.319-1.107 0-.685-.51-1.125-1.319-1.125h-9.826v-8.35h10.459c.809 0 1.319-.421 1.319-1.107 0-.703-.51-1.143-1.319-1.143H181.27c-1.723 0-2.409.65-2.409 2.233v19.53zm28.301-.967c.703 2.514 2.162 3.34 4.201 3.34 2.022 0 3.481-1.195 4.043-3.34l2.813-10.617h.246l2.76 10.406c.65 2.496 2.074 3.551 4.271 3.551 2.074 0 3.375-1.09 4.008-3.34l4.394-15.943c.141-.475.247-1.318.247-1.916 0-1.846-1.354-3.129-3.305-3.129-1.863 0-3.006 1.178-3.498 3.71l-2.373 11.495h-.334l-2.795-11.637c-.598-2.496-1.652-3.568-3.516-3.568-1.863 0-2.847 1.02-3.48 3.568l-2.778 11.637h-.316l-2.549-11.496c-.562-2.584-1.617-3.709-3.463-3.709-1.986 0-3.34 1.3-3.34 3.2 0 .58.123 1.458.37 2.32l4.394 15.468z"/></symbol>

<symbol id="sign-up-light" viewBox="0 0 59 17"><path fill="#FFFCF9" d="M5.184 12.708c-.875 0-1.68-.155-2.416-.464a5.984 5.984 0 0 1-1.904-1.28l.928-1.008c.448.448.965.805 1.552 1.072a4.666 4.666 0 0 0 1.856.384c.81 0 1.445-.176 1.904-.528a1.67 1.67 0 0 0 .688-1.392c0-.299-.053-.55-.16-.752a1.655 1.655 0 0 0-.432-.544 2.64 2.64 0 0 0-.656-.416c-.245-.117-.512-.24-.8-.368l-1.776-.736a9.286 9.286 0 0 1-.88-.416 4.165 4.165 0 0 1-.816-.608 3.448 3.448 0 0 1-.592-.848c-.15-.33-.224-.71-.224-1.136 0-.448.096-.864.288-1.248.203-.384.475-.715.816-.992a3.67 3.67 0 0 1 1.216-.64c.48-.16 1.003-.24 1.568-.24A5.08 5.08 0 0 1 8.96 2.004l-.816.944a4.296 4.296 0 0 0-1.248-.8 3.802 3.802 0 0 0-1.552-.304c-.704 0-1.264.155-1.68.464-.416.31-.624.73-.624 1.264 0 .288.059.533.176.736.128.203.288.384.48.544.192.15.405.283.64.4.245.107.49.208.736.304l1.76.72c.352.15.683.32.992.512.31.192.576.41.8.656.235.245.416.528.544.848.139.32.208.683.208 1.088 0 .47-.101.907-.304 1.312a3.26 3.26 0 0 1-.832 1.056 4.034 4.034 0 0 1-1.328.704 5.447 5.447 0 0 1-1.728.256zm6.491-8.896h1.456V12.5h-1.456V3.812zm.736-1.792c-.288 0-.528-.085-.72-.256a.906.906 0 0 1-.288-.688c0-.299.096-.528.288-.688.192-.17.432-.256.72-.256s.528.085.72.256c.192.16.288.39.288.688a.906.906 0 0 1-.288.688c-.192.17-.432.256-.72.256zM19.01 16.5a6.35 6.35 0 0 1-1.472-.16 3.513 3.513 0 0 1-1.136-.448 2.206 2.206 0 0 1-.736-.736 1.908 1.908 0 0 1-.256-.992c0-.373.112-.73.336-1.072.235-.33.555-.63.96-.896v-.064a1.7 1.7 0 0 1-.576-.56c-.149-.235-.224-.523-.224-.864 0-.363.107-.683.32-.96a3.2 3.2 0 0 1 .656-.656v-.064a3.52 3.52 0 0 1-.784-.944 2.727 2.727 0 0 1-.352-1.392c0-.48.086-.907.256-1.28a3.03 3.03 0 0 1 .72-.976 2.944 2.944 0 0 1 1.04-.624c.395-.15.811-.224 1.248-.224.246 0 .47.027.672.08.214.043.395.09.544.144h3.024v1.12h-1.776a2.2 2.2 0 0 1 .512.768c.128.31.192.65.192 1.024 0 .47-.085.89-.256 1.264-.16.363-.384.677-.672.944-.288.267-.624.47-1.008.608a3.6 3.6 0 0 1-1.232.208c-.458 0-.89-.101-1.296-.304-.16.139-.293.288-.4.448-.106.15-.16.347-.16.592 0 .277.107.507.32.688.214.17.614.256 1.2.256h1.696c1.014 0 1.771.165 2.272.496.502.33.752.853.752 1.568 0 .405-.101.79-.304 1.152a2.987 2.987 0 0 1-.88.96 4.551 4.551 0 0 1-1.392.656c-.533.16-1.136.24-1.808.24zm0-7.744c.246 0 .48-.048.704-.144.224-.096.416-.235.576-.416.171-.181.304-.395.4-.64.107-.256.16-.544.16-.864 0-.64-.181-1.136-.544-1.488a1.736 1.736 0 0 0-1.296-.544c-.512 0-.949.181-1.312.544-.362.352-.544.848-.544 1.488 0 .32.048.608.144.864.107.245.24.459.4.64a1.755 1.755 0 0 0 1.312.56zm.208 6.752c.416 0 .795-.053 1.136-.16.342-.096.63-.23.864-.4.246-.16.432-.352.56-.576a1.19 1.19 0 0 0 .208-.656c0-.405-.154-.688-.464-.848-.298-.15-.736-.224-1.312-.224h-1.504c-.16 0-.341-.01-.544-.032a3.66 3.66 0 0 1-.576-.112c-.309.224-.538.459-.688.704a1.6 1.6 0 0 0-.208.768c0 .47.219.843.656 1.12.448.277 1.072.416 1.872.416zm5.88-11.696h1.2l.128 1.248h.048a7.906 7.906 0 0 1 1.312-1.04 2.997 2.997 0 0 1 1.6-.432c.917 0 1.59.288 2.016.864.427.576.64 1.424.64 2.544V12.5h-1.456V7.188c0-.821-.133-1.413-.4-1.776-.256-.363-.672-.544-1.248-.544-.448 0-.848.112-1.2.336-.352.224-.747.555-1.184.992V12.5h-1.456V3.812zm17.967 8.896a5.69 5.69 0 0 1-1.744-.256 3.54 3.54 0 0 1-1.408-.848c-.394-.405-.704-.928-.928-1.568-.224-.64-.336-1.435-.336-2.384V.772H40.2V7.7c0 .704.075 1.296.224 1.776.15.47.352.848.608 1.136.256.288.555.496.896.624.352.117.731.176 1.136.176.416 0 .8-.059 1.152-.176.363-.128.672-.336.928-.624.267-.288.475-.667.624-1.136.16-.48.24-1.072.24-1.776V.772h1.488v6.88c0 .95-.112 1.744-.336 2.384-.224.64-.538 1.163-.944 1.568a3.4 3.4 0 0 1-1.408.848 5.694 5.694 0 0 1-1.744.256zm7.549-8.896h1.2l.128.992h.048a7.68 7.68 0 0 1 1.296-.848 3.14 3.14 0 0 1 1.472-.368c.554 0 1.045.107 1.472.32.437.213.8.512 1.088.896.298.384.522.848.672 1.392.149.544.224 1.152.224 1.824 0 .747-.107 1.413-.32 2a4.487 4.487 0 0 1-.832 1.472 3.555 3.555 0 0 1-1.2.912 3.414 3.414 0 0 1-1.424.304c-.395 0-.795-.085-1.2-.256a5.445 5.445 0 0 1-1.2-.752l.032 1.52v2.944h-1.456V3.812zm3.584 7.68c.362 0 .693-.08.992-.24.309-.16.576-.384.8-.672.224-.299.394-.661.512-1.088a5.07 5.07 0 0 0 .192-1.456c0-.48-.043-.917-.128-1.312a2.974 2.974 0 0 0-.4-1.008 1.804 1.804 0 0 0-.704-.656c-.288-.16-.64-.24-1.056-.24a2.42 2.42 0 0 0-1.136.304c-.374.203-.774.501-1.2.896v4.56c.394.341.773.581 1.136.72.373.128.704.192.992.192z"/></symbol>

<symbol id="switch-input" viewBox="0 0 42 26"><path fill="#CFCCC7" fill-rule="evenodd" d="M32 19H12c-3.9 0-7-3.1-7-7s3.1-7 7-7h20c3.9 0 7 3.1 7 7s-3.1 7-7 7z" clip-rule="evenodd" opacity=".5"/><g filter="url(#a)"><path fill="#CFCCC7" fill-rule="evenodd" d="M12 22c5.523 0 10-4.477 10-10S17.523 2 12 2 2 6.477 2 12s4.477 10 10 10z" clip-rule="evenodd"/><path stroke="url(#b)" stroke-width=".5" d="M21.75 12c0 5.385-4.365 9.75-9.75 9.75S2.25 17.385 2.25 12 6.615 2.25 12 2.25s9.75 4.365 9.75 9.75z"/><path stroke="url(#c)" stroke-width=".5" d="M21.75 12c0 5.385-4.365 9.75-9.75 9.75S2.25 17.385 2.25 12 6.615 2.25 12 2.25s9.75 4.365 9.75 9.75z"/></g><defs><filter id="a" width="24" height="26" x="0" y="0" color-interpolation-filters="sRGB" filterUnits="userSpaceOnUse"><feFlood flood-opacity="0" result="BackgroundImageFix"/><feColorMatrix in="SourceAlpha" values="0 0 0 0 0 0 0 0 0 0 0 0 0 0 0 0 0 0 127 0"/><feOffset dy="2"/><feGaussianBlur stdDeviation="1"/><feColorMatrix values="0 0 0 0 0 0 0 0 0 0 0 0 0 0 0 0 0 0 0.24 0"/><feBlend in2="BackgroundImageFix" result="effect1_dropShadow"/><feColorMatrix in="SourceAlpha" values="0 0 0 0 0 0 0 0 0 0 0 0 0 0 0 0 0 0 127 0"/><feOffset/><feGaussianBlur stdDeviation="1"/><feColorMatrix values="0 0 0 0 0 0 0 0 0 0 0 0 0 0 0 0 0 0 0.12 0"/><feBlend in2="effect1_dropShadow" result="effect2_dropShadow"/><feBlend in="SourceGraphic" in2="effect2_dropShadow" result="shape"/></filter><linearGradient id="b" x1="2.1" x2="2.1" y1="2" y2="21.8" gradientUnits="userSpaceOnUse"><stop stop-opacity="0"/><stop offset=".8" stop-opacity=".02"/><stop offset="1" stop-opacity=".04"/></linearGradient><linearGradient id="c" x1="2" x2="2" y1="2" y2="22" gradientUnits="userSpaceOnUse"><stop stop-color="#fff" stop-opacity=".12"/><stop offset=".2" stop-color="#fff" stop-opacity=".06"/><stop offset="1" stop-color="#fff" stop-opacity="0"/></linearGradient></defs></symbol>

<symbol id="last-star" viewBox="0 0 10 10"><path fill="#7D6F5D" d="M5 0l1.123 3.455h3.632L6.816 5.59 7.94 9.045 5 6.91 2.061 9.045 3.184 5.59.244 3.455h3.633L5 0z"/></symbol>

<symbol id="sign-in-light" viewBox="0 0 51 17"><path fill="#FFFCF9" d="M5.184 12.708c-.875 0-1.68-.155-2.416-.464a5.984 5.984 0 0 1-1.904-1.28l.928-1.008c.448.448.965.805 1.552 1.072a4.666 4.666 0 0 0 1.856.384c.81 0 1.445-.176 1.904-.528a1.67 1.67 0 0 0 .688-1.392c0-.299-.053-.55-.16-.752a1.655 1.655 0 0 0-.432-.544 2.64 2.64 0 0 0-.656-.416c-.245-.117-.512-.24-.8-.368l-1.776-.736a9.286 9.286 0 0 1-.88-.416 4.165 4.165 0 0 1-.816-.608 3.448 3.448 0 0 1-.592-.848c-.15-.33-.224-.71-.224-1.136 0-.448.096-.864.288-1.248.203-.384.475-.715.816-.992a3.67 3.67 0 0 1 1.216-.64c.48-.16 1.003-.24 1.568-.24A5.08 5.08 0 0 1 8.96 2.004l-.816.944a4.296 4.296 0 0 0-1.248-.8 3.802 3.802 0 0 0-1.552-.304c-.704 0-1.264.155-1.68.464-.416.31-.624.73-.624 1.264 0 .288.059.533.176.736.128.203.288.384.48.544.192.15.405.283.64.4.245.107.49.208.736.304l1.76.72c.352.15.683.32.992.512.31.192.576.41.8.656.235.245.416.528.544.848.139.32.208.683.208 1.088 0 .47-.101.907-.304 1.312a3.26 3.26 0 0 1-.832 1.056 4.034 4.034 0 0 1-1.328.704 5.447 5.447 0 0 1-1.728.256zm6.491-8.896h1.456V12.5h-1.456V3.812zm.736-1.792c-.288 0-.528-.085-.72-.256a.906.906 0 0 1-.288-.688c0-.299.096-.528.288-.688.192-.17.432-.256.72-.256s.528.085.72.256c.192.16.288.39.288.688a.906.906 0 0 1-.288.688c-.192.17-.432.256-.72.256zM19.01 16.5a6.35 6.35 0 0 1-1.472-.16 3.513 3.513 0 0 1-1.136-.448 2.206 2.206 0 0 1-.736-.736 1.908 1.908 0 0 1-.256-.992c0-.373.112-.73.336-1.072.235-.33.555-.63.96-.896v-.064a1.7 1.7 0 0 1-.576-.56c-.149-.235-.224-.523-.224-.864 0-.363.107-.683.32-.96a3.2 3.2 0 0 1 .656-.656v-.064a3.52 3.52 0 0 1-.784-.944 2.727 2.727 0 0 1-.352-1.392c0-.48.086-.907.256-1.28a3.03 3.03 0 0 1 .72-.976 2.944 2.944 0 0 1 1.04-.624c.395-.15.811-.224 1.248-.224.246 0 .47.027.672.08.214.043.395.09.544.144h3.024v1.12h-1.776a2.2 2.2 0 0 1 .512.768c.128.31.192.65.192 1.024 0 .47-.085.89-.256 1.264-.16.363-.384.677-.672.944-.288.267-.624.47-1.008.608a3.6 3.6 0 0 1-1.232.208c-.458 0-.89-.101-1.296-.304-.16.139-.293.288-.4.448-.106.15-.16.347-.16.592 0 .277.107.507.32.688.214.17.614.256 1.2.256h1.696c1.014 0 1.771.165 2.272.496.502.33.752.853.752 1.568 0 .405-.101.79-.304 1.152a2.987 2.987 0 0 1-.88.96 4.551 4.551 0 0 1-1.392.656c-.533.16-1.136.24-1.808.24zm0-7.744c.246 0 .48-.048.704-.144.224-.096.416-.235.576-.416.171-.181.304-.395.4-.64.107-.256.16-.544.16-.864 0-.64-.181-1.136-.544-1.488a1.736 1.736 0 0 0-1.296-.544c-.512 0-.949.181-1.312.544-.362.352-.544.848-.544 1.488 0 .32.048.608.144.864.107.245.24.459.4.64a1.755 1.755 0 0 0 1.312.56zm.208 6.752c.416 0 .795-.053 1.136-.16.342-.096.63-.23.864-.4.246-.16.432-.352.56-.576a1.19 1.19 0 0 0 .208-.656c0-.405-.154-.688-.464-.848-.298-.15-.736-.224-1.312-.224h-1.504c-.16 0-.341-.01-.544-.032a3.66 3.66 0 0 1-.576-.112c-.309.224-.538.459-.688.704a1.6 1.6 0 0 0-.208.768c0 .47.219.843.656 1.12.448.277 1.072.416 1.872.416zm5.88-11.696h1.2l.128 1.248h.048a7.906 7.906 0 0 1 1.312-1.04 2.997 2.997 0 0 1 1.6-.432c.917 0 1.59.288 2.016.864.427.576.64 1.424.64 2.544V12.5h-1.456V7.188c0-.821-.133-1.413-.4-1.776-.256-.363-.672-.544-1.248-.544-.448 0-.848.112-1.2.336-.352.224-.747.555-1.184.992V12.5h-1.456V3.812zM38.872.772h1.552V12.5h-1.552V.772zm4.834 3.04h1.2l.128 1.248h.048a7.906 7.906 0 0 1 1.312-1.04 2.997 2.997 0 0 1 1.6-.432c.918 0 1.59.288 2.016.864.427.576.64 1.424.64 2.544V12.5h-1.456V7.188c0-.821-.133-1.413-.4-1.776-.256-.363-.672-.544-1.248-.544-.448 0-.848.112-1.2.336-.352.224-.746.555-1.184.992V12.5h-1.456V3.812z"/></symbol>

<symbol id="star-symbol" viewBox="0 0 70 95"><g opacity=".3"><path fill="#FFFCF9" d="M35 0l4.266 13.129H53.07l-11.168 8.114 4.266 13.128L35 26.257l-11.168 8.114 4.266-13.128-11.168-8.114h13.804L35 0z"/><path stroke="#FFFCF9" stroke-linecap="round" stroke-width="2" d="M1 51h68"/><path fill="#FFFCF9" d="M20.36 67.225H15l11.913 27.72 8.016-17.447L42.816 95 55 67.225l-5.346.01-6.77 15.883-7.979-16.944-7.91 16.944-6.635-15.893z"/></g></symbol>

<symbol id="vertical-logo" viewBox="0 0 77 90"><g fill="#CFCCC7" opacity=".45"><path fill-rule="evenodd" d="M71.373 63.08c-4.066 6.33-24.469 5.752-32.912 5.752-8.442 0-27.049 0-32.912-5.753C.391 57.954 0 40.01 0 34.416s.39-23.539 5.55-28.59C11.411 0 30.018 0 38.46 0c8.444 0 27.05 0 32.913 5.827C76.532 10.877 77 28.822 77 34.417c0 5.592-.468 23.537-5.627 28.662zM67.307 9.866C63.788 6.37 49.56 5.75 38.46 5.75c-11.1 0-25.329.62-28.768 4.117-2.736 2.718-3.986 15.304-3.986 24.55 0 9.243 1.25 21.83 3.986 24.548 3.44 3.495 17.667 4.194 28.768 4.194 11.1 0 25.327-.7 28.846-4.194 2.736-2.719 3.908-15.305 3.908-24.549.001-9.245-1.172-21.83-3.908-24.549zm-5.941 32.006h-45.81L12.741 19.81l13.994 9.632 11.726-11.73 11.804 11.731 13.994-9.632-2.893 22.061zm-1.094 8.624H16.73l-.704-4.816h44.873l-.626 4.816zM49.797 35.193L38.461 24.006 27.127 35.193l-8.6-6.06 1.016 8.003h37.836l1.094-8.002-8.676 6.06z" clip-rule="evenodd"/><path d="M22.217 84.818c0 .38.053.717.159 1.01.115.282.264.522.446.717.192.185.408.326.648.424.24.098.49.147.75.147.335 0 .623-.028.863-.082.25-.054.47-.13.663-.228.106-.055.22-.12.346-.196a1.21 1.21 0 0 1 .403-.146c.26-.055.494-.033.706.065.21.098.389.282.532.554.183.337.226.674.13 1.01-.086.337-.254.62-.504.848-.403.37-.888.635-1.455.798A5.723 5.723 0 0 1 24.22 90a6.138 6.138 0 0 1-1.83-.277 4.48 4.48 0 0 1-1.598-.88 4.677 4.677 0 0 1-1.123-1.565c-.279-.64-.418-1.412-.418-2.314v-3.39c0-.901.14-1.667.418-2.297.288-.642.662-1.163 1.123-1.565a4.355 4.355 0 0 1 1.599-.896 6.138 6.138 0 0 1 1.83-.277c.643 0 1.204.076 1.684.228.49.152.874.342 1.153.57.297.24.504.538.619.897a1.33 1.33 0 0 1-.086 1.043c-.145.282-.337.483-.577.602a1.08 1.08 0 0 1-.734.098 1.847 1.847 0 0 1-.447-.146 5.558 5.558 0 0 0-.345-.196 2.313 2.313 0 0 0-.548-.163 4.256 4.256 0 0 0-.72-.049c-.26 0-.509.05-.749.147-.24.098-.456.244-.648.44a2.094 2.094 0 0 0-.447.717 2.835 2.835 0 0 0-.158.994v3.097zm9.779-6.927c.144-.456.389-.793.734-1.01a2.05 2.05 0 0 1 1.124-.342c.365 0 .715.114 1.051.342.346.228.586.565.72 1.01l3.76 11.832h-3.17l-.56-2.02h-3.703l-.547 2.02h-3.11l3.7-11.832zm.706 7.057h2.203l-1.094-4.058-1.11 4.058zm7.454 4.775V79.18c0-.468.033-.864.1-1.19.077-.326.202-.592.375-.799.173-.206.403-.353.691-.44.288-.097.648-.146 1.08-.146H47.2c.211 0 .389.043.533.13.144.087.264.201.36.342.096.142.163.3.202.473.048.174.072.342.072.505 0 .163-.024.332-.072.505a1.36 1.36 0 0 1-.202.457 1.03 1.03 0 0 1-.36.326 1.13 1.13 0 0 1-.533.114h-3.66c-.163 0-.273.032-.33.098-.059.054-.087.179-.087.374v2.054h3.701c.212 0 .39.043.533.13.144.087.264.201.36.343.096.14.164.298.202.472.048.174.072.342.072.505 0 .163-.024.332-.072.505a1.36 1.36 0 0 1-.202.457 1.03 1.03 0 0 1-.36.326 1.13 1.13 0 0 1-.533.114h-3.701v4.89h-2.967zm12.222-8.051h3.932c.21 0 .389.044.533.13.144.087.264.202.36.343.096.141.163.299.201.473a1.722 1.722 0 0 1 0 .977 1.36 1.36 0 0 1-.201.457c-.087.13-.207.239-.36.326a1.132 1.132 0 0 1-.533.114h-3.932v1.906c0 .196.028.326.086.392.058.054.168.081.331.081h3.788c.212 0 .39.044.533.13a.859.859 0 0 1 .36.326c.096.13.164.283.202.457a1.723 1.723 0 0 1 0 .994 1.348 1.348 0 0 1-.202.472 1.148 1.148 0 0 1-.36.343c-.144.087-.321.13-.533.13h-4.911c-.432 0-.792-.043-1.08-.13a1.512 1.512 0 0 1-.692-.457 1.906 1.906 0 0 1-.374-.798 5.996 5.996 0 0 1-.101-1.19v-7.97c0-.466.034-.863.1-1.189.078-.326.202-.592.375-.799.173-.206.404-.353.692-.44.288-.097.648-.146 1.08-.146h4.767c.212 0 .39.043.533.13.144.087.264.201.36.342.096.142.163.3.202.473.048.174.072.342.072.505 0 .163-.024.332-.072.505a1.364 1.364 0 0 1-.202.457 1.03 1.03 0 0 1-.36.326 1.13 1.13 0 0 1-.533.114h-3.644c-.163 0-.273.032-.331.098-.058.054-.086.179-.086.374v1.744z"/></g></symbol>

<symbol id="switch-input-checked" viewBox="0 0 42 26"><path fill="#7D6F5D" fill-rule="evenodd" d="M37 12c0 3.9-3.1 7-7 7H10c-3.9 0-7-3.1-7-7s3.1-7 7-7h20c3.9 0 7 3.1 7 7z" clip-rule="evenodd" opacity=".6"/><g filter="url(#a)"><path fill="#7D6F5D" fill-rule="evenodd" d="M30 22c5.523 0 10-4.477 10-10S35.523 2 30 2 20 6.477 20 12s4.477 10 10 10z" clip-rule="evenodd"/><path stroke="url(#b)" stroke-width=".5" d="M39.75 12c0 5.385-4.365 9.75-9.75 9.75s-9.75-4.365-9.75-9.75S24.615 2.25 30 2.25s9.75 4.365 9.75 9.75z"/><path stroke="url(#c)" stroke-width=".5" d="M39.75 12c0 5.385-4.365 9.75-9.75 9.75s-9.75-4.365-9.75-9.75S24.615 2.25 30 2.25s9.75 4.365 9.75 9.75z"/></g><defs><filter id="a" width="24" height="26" x="18" y="0" color-interpolation-filters="sRGB" filterUnits="userSpaceOnUse"><feFlood flood-opacity="0" result="BackgroundImageFix"/><feColorMatrix in="SourceAlpha" values="0 0 0 0 0 0 0 0 0 0 0 0 0 0 0 0 0 0 127 0"/><feOffset dy="2"/><feGaussianBlur stdDeviation="1"/><feColorMatrix values="0 0 0 0 0 0 0 0 0 0 0 0 0 0 0 0 0 0 0.24 0"/><feBlend in2="BackgroundImageFix" result="effect1_dropShadow"/><feColorMatrix in="SourceAlpha" values="0 0 0 0 0 0 0 0 0 0 0 0 0 0 0 0 0 0 127 0"/><feOffset/><feGaussianBlur stdDeviation="1"/><feColorMatrix values="0 0 0 0 0 0 0 0 0 0 0 0 0 0 0 0 0 0 0.12 0"/><feBlend in2="effect1_dropShadow" result="effect2_dropShadow"/><feBlend in="SourceGraphic" in2="effect2_dropShadow" result="shape"/></filter><linearGradient id="b" x1="20.1" x2="20.1" y1="2" y2="21.8" gradientUnits="userSpaceOnUse"><stop stop-opacity="0"/><stop offset=".8" stop-opacity=".02"/><stop offset="1" stop-opacity=".04"/></linearGradient><linearGradient id="c" x1="20" x2="20" y1="2" y2="22" gradientUnits="userSpaceOnUse"><stop stop-color="#fff" stop-opacity=".12"/><stop offset=".2" stop-color="#fff" stop-opacity=".06"/><stop offset="1" stop-color="#fff" stop-opacity="0"/></linearGradient></defs></symbol>

<symbol id="man-barista" viewBox="0 0 113 262"><path fill="#010202" d="M134.244 232.352c-.245-2.547-.83-5.055-1.792-7.413a27.031 27.031 0 0 0-4.282-7.112c.453-.547.755-1.245.962-1.905.547-1.679.415-3.471-.226-5.075.094-.169.151-.339.132-.528-2.207-17.109-4.395-34.2-6.621-51.309-2-15.449-4.282-31.201-11.507-45.198-3.547-6.885-8.281-13.223-14.28-18.165a1.675 1.675 0 0 0-.151-.321c-.623-1.056-2.094-1.226-3.17-1.528l-4.243-1.17a1.295 1.295 0 0 0-.453-.037c-.773-.623-1.905-1-2.849-1.358a83.069 83.069 0 0 0-7.036-2.34c-1.565-1.377-3.282-2.622-5.13-3.395-.114-.038-.208-.075-.321-.113a.974.974 0 0 0 .019-.34l-1.02-11.393c3.755-1.264 7.15-3.528 9.603-6.678 3.282-4.226 4.508-9.47 4.583-14.733.868-.207 1.755-.886 2.396-1.452 1.377-1.189 2.433-2.717 3.132-4.395.679-1.66 1.094-3.641.773-5.433-.302-1.698-1.754-2.905-3.396-2.49.868-4.83.34-9.98-.301-14.846 3.055-.849 4.433-4.81 2.791-7.62-1.81-3.113-5.3-3.774-8.488-3 .717-2.283.83-4.867-1.453-6.188-1.509-.867-3.339-.547-4.829.17-.962.453-1.792 1.132-2.66 1.736a5.18 5.18 0 0 0-.415-2.038c-.792-1.848-2.47-2.942-4.451-3.074-3.943-.283-6.49 2.678-8.263 5.829a21.183 21.183 0 0 0-1.396-3.471c-.886-1.717-2.037-3.849-4.32-3.32-1.773.415-3.338 1.943-4.395 3.357a9.846 9.846 0 0 0-1.301 2.396 27.607 27.607 0 0 0-3.943-5.055c-1.415-1.415-5.338-5.452-6.753-1.962-1.019 2.49-.736 5.753-.019 8.28a15.1 15.1 0 0 0 3.66 6.34 17.803 17.803 0 0 0-5.263 4.885c-1.472 2.075-2.603 5.414-.151 7.262 1.471 1.113 3.508 1.057 5.376.66-.302 3.415-.51 6.848-.566 10.3-.547-.377-1.094-.754-1.66-1.132-.924-.603-1.962-1.282-3.075-.698-1.962 1.038-1.848 3.849-1.528 5.697.642 3.64 2.377 9.111 6.867 9.017.81 6.225 2.961 12.11 7.62 16.544a21.851 21.851 0 0 0 2.49 2.056.933.933 0 0 0-.15.584 150.84 150.84 0 0 1-.132 12.733c-.566-.056-1.113 0-1.642.283-.773.415-1.414 1.113-2.037 1.717l-.51.51c-.15 0-.32.037-.47.112-4.188 2-8.395 3.98-12.583 5.98-1 .472-2.018.962-3.018 1.434-.924.434-1.98.811-2.792 1.434-.019.019-.056.037-.075.056-1.34.434-2.66.981-3.924 1.623-1.094.565-2.603 1.226-3.301 2.3-.038.057-.075.133-.113.19-.227-.057-.472-.02-.736.15C5.028 111.04 2.632 132.77.897 151.012-.122 161.632-.5 172.403.99 183.005c1.207 8.62 4.735 18.316 13.657 21.523 4.094 1.471 8.904 1.075 12.733-1.037l2.377 15.581c.094.604.774.792 1.283.717 8.828-1.34 17.637-2.66 26.466-3.999 4.32-.661 8.658-1.396 13.034-1.34 4.301.057 8.527 1.038 12.79 1.547 4.98.585 9.979.359 14.978.113.566-.037 1.019-.452 1.037-1.037.151-5.131.283-10.281.434-15.412l.227-7.885c.037-1.245.075-2.509.094-3.754.038-1.056.283-2.433-.208-3.433-.83-1.622-3.169-1.434-4.678-1.905-1.773-.566-3.414-1.547-4.791-2.773-3-2.622-4.98-6.187-6.037-9.998-1.433-5.169-1.395-10.582-1.358-15.883 0-.566-.471-1.019-1.037-1.038a247.21 247.21 0 0 0-20.467.34 9.246 9.246 0 0 0-2.057-.83 13.134 13.134 0 0 0 1.774-1.773c.34-.396.452-1.075 0-1.472a8.811 8.811 0 0 0-4.754-2.037c.358-.245.698-.509.924-.811.604-.811.925-2.018.359-2.943a1.892 1.892 0 0 0-.755-.698c.396-5.678.717-11.337.925-17.015.886-.113 1.697-.698 1.961-1.622.34-1.207-.358-2.528-1.377-3.15-1.32-.811-2.924-.547-4.376-.453-1.754.113-3.528.113-5.3.075-3.547-.075-7.075-.339-10.602-.339-1.755 0-3.528.075-5.282.283-.717.075-1.434.17-2.132.358a1.024 1.024 0 0 0-.509-.17c.264.019-.057-.301-.15-.49-.133-.245-.265-.509-.397-.755a46.88 46.88 0 0 1-.83-1.678c-.528-1.095-1-2.207-1.453-3.339a56.383 56.383 0 0 1-2.226-6.961 71.873 71.873 0 0 1-.773-3.49c-.113-.622-.226-1.226-.32-1.848-.057-.415-.284-1.132-.17-1.547.17-.528.924-.83 1.358-1.094.528-.321 1.075-.604 1.622-.887a21.03 21.03 0 0 1 1.773-.773c.151.773.51 1.584.812 2.32 2.678 6.659 6.583 13.374 13.129 16.826 3.565 1.868 7.526 2.66 11.488 3.113 2.018.226 4.055.377 6.093.509 1.018.057 2.018.094 3.037.057.434.358 1.15.302 1.528-.132.66-.095 1.301-.227 1.943-.415 3.678-1.094 6.998-3.509 9.903-5.961 2.81-2.377 5.3-5.15 7.413-8.168a42.299 42.299 0 0 0 3.17-5.339c.433-.867.83-1.773 1.207-2.678.415-1 .943-2.056 1.075-3.132.83.227 1.679.472 2.509.698.585.17 1.17.32 1.773.49.34.095.566.114.698.19a.728.728 0 0 0 .151.377v.188c-.113 2.415-.585 4.829-1.037 7.206-.887 4.603-2 9.149-2.566 13.808-.566 4.641-.49 9.413.943 13.903 1.415 4.433 3.83 8.47 5.395 12.865 3.339 9.243 4.546 19.184 5.942 28.862 1.491 10.261 2.754 20.561 3.905 30.861 1.283 11.525 2.434 23.051 3.565 34.577.019.169.057.302.132.434v.169c.434 5.886.925 11.771 1.302 17.657.038.49.094.962-.17 1.415-.283.471-.849.792-1.264 1.113a33.022 33.022 0 0 1-3.112 1.924c-2.056 1.094-4.245 1.943-6.489 2.603-4.584 1.358-9.338 1.981-14.073 2.471-5.3.566-10.582 1.151-15.883 1.717-5.621.584-11.28.999-16.94.622-5.659-.377-11.242-1.471-16.732-2.867a202.604 202.604 0 0 1-8.017-2.226c-1.264-.377-2.546-.755-3.81-1.151-1.17-.358-2.584-.585-3.64-1.207-1.076-.623-.869-1.905-.85-2.999l.057-4.509c.038-2.886.075-5.753.132-8.639a1587.43 1587.43 0 0 1 1.15-39.048c.057-1.34-2.018-1.34-2.074 0a1710.16 1710.16 0 0 0-1.32 49.932c-.02 1.452-.19 3.018.056 4.471.452 2.622 3.093 3.112 5.244 3.772 1.603.491 3.207.981 4.81 1.453a1570.98 1570.98 0 0 0 4.301 46.159 1611.29 1611.29 0 0 0 5.716 46.613c.434 3.225.792 6.583 2.358 9.488a9.61 9.61 0 0 0 1.32 1.886 136.513 136.513 0 0 0-17.336 17.751c-.49.604-.34 1.472.453 1.736 3.49 1.15 7.206.735 10.696-.151 3.207-.811 6.338-1.981 9.319-3.377a55.182 55.182 0 0 0 16.11-11.469c.49-.509.32-1.132-.095-1.49.622-.755.943-1.698 1.037-2.717.151-1.735-.207-3.546-.396-5.281a795.039 795.039 0 0 1-1.585-17.506 713.701 713.701 0 0 1-1.452-23.712 688.734 688.734 0 0 1-.471-47.121c.037-1.868.094-3.735.15-5.603 2.83-.019 5.66-.17 8.49-.415 2.32-.207 4.64-.452 6.941-.698a1803.251 1803.251 0 0 1 5.338 37.615 1912.781 1912.781 0 0 1 4.565 37.463c.793 7.112 1.547 14.242 2.264 21.372.057.566.415 1 1 1.038 4.886 7.017 11.11 13.054 18.298 17.675a63.126 63.126 0 0 0 5.602 3.207c1.604.811 3.49 1.83 5.339 1.339 2.075-.547 2.358-2.697 1.697-4.47-.811-2.189-1.829-4.301-2.867-6.395a92.905 92.905 0 0 0-8.13-13.374 4.465 4.465 0 0 0 1.037-1.302c.793-1.49.755-3.207.717-4.848-.056-2.075-.113-4.15-.151-6.225-.094-4.075-.207-8.168-.302-12.243l-1.245-49.366c-.226-9.149-.471-18.298-.698-27.466.095-.056.208-.094.302-.15a29.62 29.62 0 0 0 3.679-2.113c.981-.66 2.094-1.358 2.641-2.434.679-1.32.264-3.074.15-4.47-.113-1.623-.245-3.264-.358-4.886-.264-3.509-.509-7.017-.773-10.526a1.163 1.163 0 0 0-.132-.453v-.151c-.472-4.678-.925-9.356-1.396-14.034.094-.038.169-.076.264-.132.377-.245.754-.51 1.132-.755.735.755.981 1.981 1.263 2.924a79.397 79.397 0 0 1 1.283 4.622 70.661 70.661 0 0 1 1.66 9.526c.17 1.584.283 3.188.34 4.791.056 1.226.037 2.736 1.565 3.018 2.566.472 3-2.867 3.132-5.149.038.452.075.905.094 1.339.038.566.453 1.038 1.038 1.038 1.377.018 2.188-.887 2.678-2.019v.057c.17.981.925 1.867 2.019 1.603 1.056-.264 1.509-1.415 1.754-2.358.208-.83.396-1.679.547-2.509.302.359.698.623 1.245.679 1.113.114 1.886-.773 2.245-1.735.415-1.075.453-2.358.528-3.49a23.577 23.577 0 0 0-.019-3.999zM38.247 43.602c-.151-.698-.32-1.415-.359-2.132-.037-.49-.094-2 .51-2.264.452-.207 1.679.887 2.018 1.132.623.415 1.226.85 1.83 1.302.019 2.754.15 5.508.396 8.243-2.83-.302-3.848-3.867-4.395-6.281zM63.07 157.897a6.168 6.168 0 0 0-1.527-1.019 7.018 7.018 0 0 0 1.226-1.547c6.055-.32 12.11-.415 18.165-.301-.037 8.413.321 17.354 5.905 24.145 2.358 2.867 5.602 5.15 9.28 5.867.378.075.774.113 1.151.188.49.095.717.114.83.604.114.547-.037 1.245-.037 1.792l-.057 2.264c-.075 2.565-.15 5.131-.208 7.696l-.452 16.487c-4.112.208-8.225.358-12.318.019-4.339-.377-8.602-1.434-12.96-1.66-4.357-.245-8.715.396-13.016 1.056-4.432.661-8.884 1.34-13.317 2.019-4.678.698-9.357 1.414-14.035 2.112-.773-5.13-1.566-10.261-2.339-15.392 3.565-2.773 5.772-6.961 6.093-11.469 0-.095 0-.208-.038-.302 1.566-.962 1.792-3.037 1.038-4.622-.49-1.056-1.377-1.735-2.377-2.245 2.188-2.509 4.15-5.225 5.791-8.111a49.696 49.696 0 0 0 2.358-4.697c.094-.208.189-.453.264-.698 3.113-.208 6.225-.358 9.338-.641 1.17-.114 2.225-.453 2.716-1.623.566-1.377.83-2.961 1.207-4.414 0-.038.02-.056.02-.094a46.076 46.076 0 0 0 7.13-3.792c.49-.339.679-1.15.17-1.622zM33.72 189.55a86.356 86.356 0 0 1-11.223-3.414c-1.981-.755-3.943-1.566-5.848-2.528-1.585-.792-3.301-1.811-4.075-3.49-.641-1.396-.603-3.32.868-4.168 1.415-.812 3.263-.378 4.584.396.34.188.66.415.962.641.132.189.32.358.547.434.943.792 1.792 1.679 2.716 2.49 1.434 1.283 3.019 2.396 4.754 3.244 1.83.906 3.81 1.302 5.678 2.075.773.321 1.603.793 1.943 1.623.264.641.283 1.509-.396 1.886-.359.208-.51.509-.51.811zm9.583-21.599c.227-.434.51-.83.868-1.113.604-.49 1.471-.566 2.207-.716.755-.151 1.528-.302 2.282-.472a44.72 44.72 0 0 0 4.698-1.396c-.208.792-.396 1.585-.642 2.377-.15.509-.245.66-.792.736-.623.094-1.283.094-1.905.132-2.245.15-4.49.301-6.716.452zm15.638-17.807a12.468 12.468 0 0 1-3.131 2.282c-.075.038-.132.095-.208.151a57.9 57.9 0 0 0-9.903.51c-1.32.188-.755 2.188.547 1.999 3.263-.452 6.565-.566 9.847-.415.377.019.641-.132.811-.358a6.682 6.682 0 0 1 3.47.754l.02.019a4.618 4.618 0 0 1-1.773 1.226c-3.98.547-7.904 1.359-11.752 2.49-1.283.378-.736 2.377.546 2 3.415-1 6.905-1.792 10.432-2.301.17.075.377.094.623.037.66-.151 1.32-.132 1.924.076-2.566 1.547-5.282 2.848-8.13 3.81-1.566.547-3.17 1-4.792 1.358-1.528.34-3.263.397-4.527 1.396-1.226.962-1.679 2.49-2.245 3.886-.622 1.547-1.358 3.037-2.15 4.509a47.616 47.616 0 0 1-6.037 8.677.948.948 0 0 0-.264.641c-.226-.075-.453-.132-.66-.207-2.226-.66-4.301-1.585-6.206-2.924-1.49-1.056-2.736-2.396-4.094-3.584 2.849-5.037 5.188-10.375 6.904-15.883a80.94 80.94 0 0 0 2.245-8.904c.32-1.717.49-3.999 1.622-5.452.076 1.019.17 2.019.246 3.037-1.132.51-.604 2.415.641 1.962a155.106 155.106 0 0 1 15.035-4.565c2.263-.566 4.564-1.207 6.866-1.603.056.396.32.622.66.717-.207.169-.434.32-.641.471-.604.453-1.113.906-1.453 1.547-3.131.358-6.244.698-9.375 1.056-1.32.151-1.32 2.226 0 2.075l10.13-1.131a.948.948 0 0 0 .471-.17 6.4 6.4 0 0 1 4.301.811zm-25.447-14.468a.95.95 0 0 0-.245.037c-.132-1.603-.264-3.207-.396-4.791-.076-1-.17-2-.245-2.999-.038-.378-.227-1.057-.114-1.415.02-.038.02-.076.038-.113.113-.057.226-.114.302-.189h.302c3.961-.189 7.941-.151 11.903-.208 3.603-.056 7.225-.113 10.828-.15a383.652 383.652 0 0 1-.453 9.299h-.038c-7.3-.226-14.6-.037-21.882.529zm21.788 1.509c-.114 1.829-.227 3.659-.359 5.47-.113.019-.226.038-.32.057a160.907 160.907 0 0 0-20.316 5.527l-.868-10.488h.075c7.244-.566 14.525-.755 21.788-.566zm-24.014-14.243c1.226-.358 2.566-.415 3.848-.49 2.792-.17 5.603-.075 8.395.038 2.81.113 5.602.264 8.413.207 1.302-.019 2.603-.17 3.905-.207.603-.019 1.34-.038 1.792.434.302.301.434.943-.208.754-.283-.075-.528-.056-.735.057-6.678.094-13.356.188-20.034.302-1.452.018-3.112-.17-4.527.169-.283.057-.51.17-.698.283a7.894 7.894 0 0 1-1.773.019c-.038-.773.962-1.377 1.622-1.566zm-.735 5.131c.245 3.075.509 6.15.754 9.244.17 2.018.34 4.018.49 6.036-2.037 1.32-2.716 3.697-3.15 5.961-.509 2.697-1.075 5.395-1.81 8.036a221.432 221.432 0 0 0 3.716-29.277zm-4.603-11.921a53.455 53.455 0 0 0 1.81 3.961c.321.622.604 1.339 1.038 1.867-.924.849-1.433 2.189-1.037 3.434.15.471.452.773.849.981 0 .037-.02.094-.02.132a225.736 225.736 0 0 1-6.62 43.33.93.93 0 0 0 0 .509 85.843 85.843 0 0 1-2.358 4.527c-1.566-1.037-3.377-1.622-5.263-1.358-1.906.264-3.566 1.528-4.056 3.433-.245.943-.264 1.792-.094 2.603a7.974 7.974 0 0 1-2.528-1.773c-.924-.962-2.396.509-1.472 1.472a9.892 9.892 0 0 0 2.849 2.075 4.4 4.4 0 0 0-.49.547c-.812 1.037.64 2.527 1.47 1.471.416-.528.887-.905 1.472-1.132 1.547 1.887 4.075 3.207 6.188 4.15a85.648 85.648 0 0 0 15.6 5.207c-.49 3.64-2.471 7.073-5.452 9.224-3.32 2.414-7.734 3.131-11.677 1.999-8.62-2.49-11.884-12.072-13.034-20.033-1.434-9.828-1.113-19.863-.264-29.729.83-9.545 1.773-19.316 4.49-28.541 2.583-8.734 7.186-17.222 14.694-22.636.057.415.15.83.207 1.226.246 1.509.547 3.018.906 4.508a58.707 58.707 0 0 0 2.792 8.546zm46.574-28.88c1.264.395 2.49 1.357 3.547 2.15.452.32.867.679 1.301 1.037a.803.803 0 0 0 .227.208 57.316 57.316 0 0 1-11.866-1.83c.66-.208 1.34-.434 2-.642 1.452-.471 3.263-1.376 4.791-.924zm-17.6-15.469c3.528 2.056 7.602 3.15 11.715 2.924a21.454 21.454 0 0 0 3.64-.528l.963 10.827c0 .038 0 .057.018.095-.66.038-1.32.188-1.98.396-1.66.51-3.32 1.056-4.961 1.584-.453.151-.906.283-1.34.434h-.019a2139.603 2139.603 0 0 1-8.356-3.112c.094-.151.17-.34.188-.547.208-4.037.264-8.055.132-12.073zm35.05-31.37c.961-.434.848 2.169.81 2.584a9.014 9.014 0 0 1-.83 2.962 9.85 9.85 0 0 1-1.716 2.565c-.321.34-.66.66-1.019.962a8.89 8.89 0 0 1-.698.49c-.019.02-.038.02-.056.038a42.35 42.35 0 0 0-.302-3.47c.056-.057.113-.114.17-.19 1.263-1.886 2.112-3.885 2.66-5.98.263.17.603.208.98.039zM39.095 26.7c-2.32-.943-.283-4.094.66-5.3 1.452-1.83 3.282-3.264 5.357-4.302.755-.377.604-1.245.095-1.66-.057-.075-.114-.15-.19-.207-3.281-2.962-4.998-7.583-4.187-11.96.057-.264.076-.566.189-.83.132-.34.037-.358.434-.207.471.17.962.716 1.339 1.037a27.955 27.955 0 0 1 2.528 2.434c1.64 1.81 2.999 3.885 4.055 6.092.49 1.02 1.849.397 1.925-.528.245-2.565 1.961-5.602 4.508-6.527.887-.32 1.226.453 1.622 1.113.396.66.755 1.34 1.075 2.057.698 1.528 1.132 3.169 1.396 4.829.132.849 1.528 1.037 1.905.245 1.34-2.905 2.924-6.433 6.358-7.206 1.32-.302 2.81-.038 3.603 1.132.679.962.849 2.358-.038 3.244-.717.717 0 2.038 1.019 1.736 1.358-.415 2.47-1.207 3.603-2.019 1.056-.754 2.339-1.64 3.734-1.49 2.906.32 1.32 4.339.547 5.848a1.042 1.042 0 0 0 1.415 1.415c2.49-1.208 5.867-1.453 7.716.98.716.925 1.037 2.17.566 3.283-.472 1.113-1.49 1.886-2.698 1.83-1.056-.038-1.283 1.264-.66 1.83.849 6.375 1.603 13.298-1.075 19.24a125.443 125.443 0 0 0-1.981-21.58c0-.037-.02-.056-.02-.094-.093-.924-1.414-1.49-1.885-.472-.717 1.528-.925 3.17-1.49 4.754-.397 1.113-1.472 2.698-2.887 2.49-1.415-.207-1.698-2.697-1.943-3.773-.415-1.924-.566-3.867-.51-5.847.039-1.245-1.621-1.302-2.036-.283a48.623 48.623 0 0 1-2.358 5.017c-.736 1.377-1.566 3.32-2.887 4.245-1.377.962-2.772-.566-3.225-1.792-.641-1.717-.472-3.679-.887-5.452-.207-.868-1.471-1.018-1.905-.245-1.792 3.226-4.263 6.036-7.3 8.13-1.075.755-3.415 2.188-3.49-.113-.038-.83.34-1.585.66-2.34.377-.886.68-1.716.792-2.678.114-.905-1.207-1.34-1.773-.735a15.91 15.91 0 0 1-5.527 3.829c-1.679.679-4.3 1.584-6.15.83zm13.582 40.99c-4.735-4.13-6.999-9.827-7.772-15.958-.962-7.753-.698-15.789.037-23.56l.17-.057c1.547-.547 3-1.283 4.339-2.226-.34.924-.566 1.867-.264 2.961.622 2.302 2.942 2.717 4.885 1.792 2.038-.98 3.924-2.66 5.49-4.263a27.816 27.816 0 0 0 2.603-3.15c.132 1.358.32 2.697 1.019 3.905.962 1.622 2.83 2.942 4.791 2.358 1.98-.604 3.056-2.736 4.018-4.396.472-.83.924-1.678 1.358-2.527.132 1.056.34 2.112.604 3.131.453 1.754 1.17 3.754 3.15 4.188 1.792.396 3.528-.755 4.546-2.15.434-.604.717-1.264.924-1.962a122.41 122.41 0 0 1 1.227 20.523c0 .34.113.585.32.755a38.05 38.05 0 0 1 .302 3.886v.132c.094 4.602-.717 9.262-3.169 13.204-2.15 3.452-5.565 6.018-9.413 7.357-.566-.547-1.698-.377-1.754.528a16.58 16.58 0 0 1-2.358.415c-5.47.604-10.922-1.282-15.053-4.885zm-4.452 22.071a35.51 35.51 0 0 1 1.792-1.962c.547-.566 1.132-1.264 1.792-1.697.773-.49 1.792.15 2.546.433l2.622.981c.925.34 1.85.698 2.792 1.038-1.83.585-3.64 1.17-5.47 1.754-2.603.83-5.244 1.66-7.96 1.887a32.385 32.385 0 0 1 1.886-2.434zm14.789 28.862c-2.113.113-4.263-.132-6.395-.302-3.546-.302-7.13-.774-10.488-2.019-6.414-2.357-10.545-7.903-13.375-13.902a45.452 45.452 0 0 1-1.131-2.603c-.17-.415-.321-.83-.49-1.226-.133-.359-.454-.868-.397-1.264 0-.057.038-.132.075-.189.114-.094.208-.189.283-.302.585-.471 1.792-.83 2.226-1.056l3.019-1.434c3.018-1.433 6.017-2.848 9.035-4.282a39.328 39.328 0 0 0-1.905 2.735c-.434.68.15 1.528.887 1.566 3.15.094 6.187-.679 9.167-1.603a510.081 510.081 0 0 0 7.602-2.434c1.377 9.375 2 18.845 1.887 28.315zm24.258-23.222c-1.075 3.075-2.584 6.018-4.395 8.734-3.603 5.452-8.771 10.545-14.751 13.318-1 .472-2.018.755-3.037.943a179.525 179.525 0 0 0-1.887-28.107 59.878 59.878 0 0 0 17.034 2.528c.604 0 .981-.471 1.019-1 .811.265 1.641.547 2.452.83.906.321 1.811.66 2.698 1.038.264.113.754.245.962.471.302.359.056.85-.094 1.245zM45.66 384.017a53.395 53.395 0 0 1-8.734 3.264c-2.848.773-5.81 1.264-8.696.716a135.452 135.452 0 0 1 16.28-16.449 12.96 12.96 0 0 0 3.753 1.962c2.83.943 6 1.226 8.98 1.283.64.019 1.301 0 1.961-.113a52.867 52.867 0 0 1-13.544 9.337zm14.733-22.24c.188 1.867.377 3.716.566 5.584.132 1.32.566 3.169-.302 4.338-.83 1.132-2.566 1.057-3.81 1a46.76 46.76 0 0 1-4.264-.358c-2.792-.378-5.715-1.151-7.734-3.245-2.113-2.188-2.716-5.338-3.15-8.225-2.245-14.883-3.943-29.861-5.584-44.82a1575.11 1575.11 0 0 1-4.32-45.159l-.34-4.283c.586.17 1.17.34 1.736.491 5.527 1.528 11.13 2.83 16.827 3.546 2.452.302 4.904.472 7.338.51a696.703 696.703 0 0 0 .037 45.273 700.135 700.135 0 0 0 3 45.348zm52.422 15.147a95.684 95.684 0 0 1 2.867 5.754c.434.943.849 1.886 1.226 2.867.265.66.83 1.887-.132 2.188-1.377.434-3.282-.886-4.433-1.471a69.713 69.713 0 0 1-5.036-2.924 61.414 61.414 0 0 1-9.074-7.13c-2.773-2.641-5.32-5.509-7.564-8.602 3.263.038 6.527-.038 9.79-.264 1.755-.113 3.962-.132 5.791-.793a95.318 95.318 0 0 1 6.565 10.375zm-5.131-17.939c.038 1.641.34 3.905-1.132 5.056-1.339 1.056-3.395.999-4.999 1.131-4.168.321-8.337.415-12.506.321a1849.581 1849.581 0 0 0-4.094-36.86 1961.326 1961.326 0 0 0-4.96-37.878c-.982-6.98-2-13.94-3.057-20.901 2.679-.302 5.357-.604 8.036-.887 5.037-.509 10.111-1.037 15.016-2.282a40.635 40.635 0 0 0 5.319-1.717c.396 15.45.774 30.899 1.17 46.348.396 15.884.811 31.767 1.207 47.669zM109.514 206c-1.113-9.997-2.301-19.995-3.716-29.955-1.396-9.922-2.566-20.109-5.622-29.692-1.471-4.64-3.81-8.884-5.564-13.412-1.755-4.546-2.113-9.262-1.604-14.091.566-5.376 1.98-10.639 2.924-15.959.226-1.339.434-2.678.604-4.018.019-.17.037-.34.075-.528 10.073 8.998 15.883 21.712 19.185 34.634 1.999 7.847 3.206 15.883 4.263 23.9 1.094 8.338 2.15 16.695 3.225 25.032 1.17 9.093 2.339 18.185 3.528 27.296-5.791-.471-11.526-1.547-17.109-3.15a.366.366 0 0 0-.189-.057zm.245 2.207a88.951 88.951 0 0 0 17.072 3.056c.698 1.415.773 3.094.132 4.547-.434.98-.943.98-1.924.886-.906-.094-1.811-.188-2.717-.302-3.81-.471-7.602-1.188-11.337-2.075a1.029 1.029 0 0 0-.585.019c-.207-2.037-.433-4.093-.641-6.131zm22.391 28.805c-.056.604-.094 1.283-.283 1.849-.018.057-.056.113-.094.189-.038-.547.057-1.113.057-1.642a14.827 14.827 0 0 0-.151-2.414 16.765 16.765 0 0 0-1.132-4.263c-.396-.962-2.188-1-2.037.283.226 2.094.283 4.206.132 6.319a30.764 30.764 0 0 1-.415 3.207c-.095.547-.283 1.113-.434 1.66-.038-.264-.057-.528-.095-.792-.132-1.113-.282-2.207-.415-3.32-.282-2.264-.565-4.547-.848-6.81-.17-1.302-2.226-1.34-2.075 0 .264 2.358.509 4.735.452 7.093-.037 1.15-.132 2.282-.358 3.395-.057.264-.132.773-.283 1.226a59.936 59.936 0 0 0-2.528-12.337c-.339-1.056-2.15-.943-2.037.283.377 3.773.736 7.583.547 11.394-.057 1-.151 2.018-.302 2.999-.038.302-.075.623-.17.906-.018.075-.037.132-.056.207-.019-.038-.019-.075-.038-.132.132-.886-.094-1.943-.151-2.829-.056-.887-.151-1.774-.245-2.66a77.303 77.303 0 0 0-1.886-10.583 68.977 68.977 0 0 0-1.491-5.112c-.452-1.339-1.037-2.641-2.32-3.358-.302-.169-.736-.207-1.056 0-.378.246-.755.51-1.132.755-.208-2.056-.415-4.131-.641-6.187a109.902 109.902 0 0 0 14.242 2.395c.509.057.999.095 1.471.057.038.075.094.151.151.226 3.395 3.943 5.433 9.017 5.734 14.205.038 1.282.019 2.546-.113 3.791z"/></symbol>
</svg>